<svg aria-hidden="true" style="position: absolute; width: 0; height: 0; overflow: hidden;" version="1.1" xmlns="http://www.w3.org/2000/svg" xmlns:xlink="http://www.w3.org/1999/xlink">
<defs>
<symbol id="icon-verified_user" viewBox="0 0 34 32">
<path fill="#fff" style="fill: var(--color1, #fff)" d="M16.546 1.317l-12.409 5.268v7.902c0 7.31 5.295 14.145 12.409 15.805 7.115-1.66 12.409-8.495 12.409-15.805v-7.902l-12.409-5.268zM26.197 14.488c0 5.953-4.109 11.445-9.652 13.079-5.543-1.633-9.652-7.125-9.652-13.079v-6.19l9.652-4.096 9.652 4.096v6.19zM10.217 15.265l-1.944 1.857 5.515 5.268 11.030-10.537-1.944-1.87-9.086 8.68-3.571-3.398z"></path>
</symbol>
<symbol id="icon-headphones" viewBox="0 0 34 32">
<path fill="none" stroke="#fff" style="stroke: var(--color1, #fff)" stroke-linejoin="round" stroke-linecap="round" stroke-miterlimit="4" stroke-width="2.3415" d="M4.136 23.707v-7.902c0-3.144 1.307-6.159 3.635-8.382s5.484-3.472 8.775-3.472 6.448 1.249 8.775 3.472c2.327 2.223 3.635 5.238 3.635 8.382v7.902"></path>
<path fill="none" stroke="#fff" style="stroke: var(--color1, #fff)" stroke-linejoin="round" stroke-linecap="round" stroke-miterlimit="4" stroke-width="2.3415" d="M28.955 25.024c0 0.699-0.291 1.369-0.808 1.863s-1.219 0.771-1.95 0.771h-1.379c-0.731 0-1.433-0.278-1.95-0.771s-0.808-1.164-0.808-1.863v-3.951c0-0.699 0.291-1.369 0.808-1.863s1.219-0.771 1.95-0.771h4.136v6.585zM4.136 25.024c0 0.699 0.291 1.369 0.808 1.863s1.219 0.771 1.95 0.771h1.379c0.731 0 1.433-0.278 1.95-0.771s0.808-1.164 0.808-1.863v-3.951c0-0.699-0.29-1.369-0.808-1.863s-1.219-0.771-1.95-0.771h-4.136v6.585z"></path>
</symbol>
<symbol id="icon-award" viewBox="0 0 34 32">
<path fill="none" stroke="#fff" style="stroke: var(--color1, #fff)" stroke-linejoin="round" stroke-linecap="round" stroke-miterlimit="4" stroke-width="2.3415" d="M16.546 19.756c5.331 0 9.652-4.128 9.652-9.22s-4.321-9.22-9.652-9.22c-5.331 0-9.652 4.128-9.652 9.22s4.321 9.22 9.652 9.22z"></path>
<path fill="none" stroke="#fff" style="stroke: var(--color1, #fff)" stroke-linejoin="round" stroke-linecap="round" stroke-miterlimit="4" stroke-width="2.3415" d="M11.32 18.294l-1.668 11.999 6.894-3.951 6.894 3.951-1.668-12.012"></path>
</symbol>
</defs>
</svg>
