<svg aria-hidden="true" style="position: absolute; width: 0; height: 0; overflow: hidden;" version="1.1" xmlns="http://www.w3.org/2000/svg" xmlns:xlink="http://www.w3.org/1999/xlink">
<defs>
<symbol id="icon-bull" viewBox="0 0 33 32">
<path fill="#fff" style="fill: var(--color1, #fff)" d="M25.463 15.988c0 0.577-0.059 1.153-0.174 1.715-0.113 0.548-0.279 1.087-0.497 1.602-0.213 0.506-0.478 0.993-0.787 1.447-0.305 0.451-0.655 0.875-1.041 1.261-0.386 0.384-0.811 0.734-1.263 1.040-0.456 0.307-0.944 0.571-1.45 0.786-0.515 0.217-1.055 0.384-1.603 0.496-0.562 0.116-1.141 0.175-1.719 0.175s-1.157-0.059-1.718-0.175c-0.549-0.112-1.088-0.279-1.603-0.496-0.506-0.214-0.994-0.479-1.45-0.786-0.451-0.306-0.876-0.656-1.262-1.040-0.386-0.386-0.737-0.81-1.042-1.261-0.307-0.454-0.573-0.942-0.787-1.447-0.218-0.515-0.385-1.053-0.498-1.602-0.114-0.562-0.172-1.138-0.172-1.715s0.058-1.155 0.173-1.716c0.113-0.548 0.28-1.088 0.498-1.601 0.214-0.506 0.479-0.994 0.787-1.448 0.305-0.452 0.656-0.875 1.042-1.261 0.386-0.384 0.81-0.734 1.262-1.039 0.456-0.308 0.944-0.573 1.45-0.787 0.515-0.218 1.055-0.384 1.604-0.496 0.562-0.115 1.14-0.173 1.718-0.173s1.156 0.058 1.719 0.173c0.548 0.112 1.087 0.278 1.603 0.496 0.506 0.215 0.994 0.479 1.45 0.787 0.451 0.305 0.876 0.654 1.263 1.039 0.385 0.387 0.736 0.809 1.041 1.261 0.309 0.454 0.574 0.942 0.787 1.448 0.218 0.514 0.385 1.053 0.497 1.601 0.115 0.56 0.174 1.138 0.174 1.716zM13.82 9.406c-2.032 0.958-3.549 2.828-4.022 5.082 0.192 0.002 3.229 0.040 6.728-0.888-1.261-2.238-2.609-4.064-2.706-4.193zM17.13 14.72c-3.752 1.122-7.353 1.041-7.482 1.036-0.002 0.078-0.006 0.154-0.006 0.232 0 1.869 0.706 3.574 1.867 4.863-0.002-0.004 1.992-3.537 5.925-4.807 0.095-0.032 0.192-0.060 0.288-0.087-0.183-0.413-0.383-0.828-0.591-1.237zM21.742 10.527c-1.283-1.13-2.968-1.815-4.813-1.815-0.592 0-1.167 0.072-1.717 0.204 0.109 0.146 1.478 1.96 2.724 4.245 2.75-1.029 3.788-2.607 3.806-2.634zM18.218 17.162c-0.016 0.005-0.032 0.010-0.048 0.016-4.3 1.497-5.704 4.513-5.719 4.546 1.237 0.961 2.789 1.54 4.479 1.54 1.009 0 1.97-0.205 2.845-0.577-0.108-0.636-0.531-2.864-1.557-5.526zM21.002 22.023c1.636-1.103 2.799-2.854 3.123-4.882-0.15-0.048-2.189-0.693-4.541-0.316 0.956 2.623 1.344 4.759 1.418 5.198zM18.498 14.245c0.169 0.347 0.333 0.7 0.484 1.055 0.054 0.127 0.106 0.252 0.157 0.377 2.503-0.315 4.97 0.215 5.075 0.236-0.017-1.725-0.635-3.308-1.657-4.548-0.014 0.020-1.183 1.706-4.060 2.879z"></path>
</symbol>
<symbol id="icon-inst" viewBox="0 0 33 32">
<path fill="#fff" style="fill: var(--color1, #fff)" d="M16.931 7.467c-2.317 0-2.608 0.010-3.519 0.052-0.909 0.042-1.528 0.185-2.071 0.396-0.561 0.218-1.037 0.509-1.512 0.984s-0.766 0.95-0.985 1.511c-0.212 0.543-0.356 1.163-0.396 2.071-0.041 0.91-0.051 1.201-0.051 3.519s0.010 2.608 0.052 3.518c0.042 0.909 0.186 1.529 0.396 2.071 0.218 0.561 0.51 1.037 0.984 1.512s0.95 0.767 1.511 0.985c0.543 0.211 1.163 0.355 2.072 0.396 0.91 0.041 1.201 0.052 3.518 0.052s2.608-0.010 3.518-0.052c0.908-0.042 1.529-0.185 2.072-0.396 0.561-0.218 1.036-0.51 1.511-0.985s0.766-0.95 0.985-1.512c0.21-0.543 0.354-1.163 0.396-2.071 0.041-0.91 0.052-1.2 0.052-3.518s-0.011-2.608-0.052-3.519c-0.043-0.909-0.187-1.529-0.396-2.071-0.219-0.561-0.51-1.037-0.985-1.512s-0.949-0.766-1.511-0.984c-0.544-0.211-1.164-0.355-2.073-0.396-0.91-0.041-1.2-0.052-3.518-0.052h0.003zM16.165 9.004c0.227-0 0.481 0 0.765 0 2.278 0 2.548 0.008 3.448 0.049 0.832 0.038 1.284 0.177 1.584 0.294 0.398 0.155 0.682 0.34 0.981 0.638s0.484 0.583 0.639 0.981c0.117 0.3 0.256 0.752 0.294 1.584 0.041 0.9 0.050 1.17 0.050 3.447s-0.009 2.548-0.050 3.447c-0.038 0.832-0.177 1.284-0.294 1.584-0.155 0.398-0.34 0.682-0.639 0.98s-0.582 0.484-0.981 0.638c-0.3 0.117-0.752 0.256-1.584 0.294-0.9 0.041-1.17 0.050-3.448 0.050s-2.549-0.009-3.448-0.050c-0.832-0.038-1.284-0.177-1.585-0.294-0.398-0.155-0.683-0.34-0.981-0.638s-0.484-0.582-0.639-0.981c-0.117-0.3-0.256-0.752-0.294-1.584-0.041-0.899-0.049-1.17-0.049-3.448s0.008-2.548 0.049-3.447c0.038-0.832 0.177-1.284 0.294-1.584 0.155-0.398 0.34-0.683 0.639-0.981s0.583-0.484 0.981-0.639c0.301-0.117 0.753-0.256 1.585-0.294 0.787-0.036 1.092-0.046 2.683-0.048v0.002zM21.486 10.421c-0.565 0-1.024 0.458-1.024 1.024s0.459 1.024 1.024 1.024c0.565 0 1.024-0.459 1.024-1.024s-0.459-1.024-1.024-1.024zM16.931 11.618c-2.42 0-4.382 1.962-4.382 4.382s1.962 4.381 4.382 4.381 4.382-1.961 4.382-4.381c0-2.42-1.962-4.382-4.382-4.382zM16.931 13.155c1.571 0 2.845 1.273 2.845 2.845s-1.274 2.844-2.845 2.844c-1.571 0-2.845-1.274-2.845-2.844s1.274-2.845 2.845-2.845z"></path>
</symbol>
<symbol id="icon-twt" viewBox="0 0 33 32">
<path fill="#fff" style="fill: var(--color1, #fff)" d="M16.451 13.005l0.034 0.554-0.56-0.068c-2.037-0.26-3.816-1.141-5.327-2.621l-0.739-0.734-0.19 0.542c-0.403 1.209-0.146 2.486 0.694 3.344 0.448 0.475 0.347 0.542-0.425 0.26-0.269-0.090-0.504-0.158-0.526-0.124-0.078 0.079 0.19 1.107 0.403 1.514 0.291 0.565 0.884 1.119 1.533 1.446l0.548 0.26-0.649 0.011c-0.627 0-0.649 0.011-0.582 0.249 0.224 0.734 1.108 1.514 2.093 1.853l0.694 0.237-0.604 0.362c-0.895 0.52-1.947 0.814-2.999 0.836-0.504 0.011-0.918 0.056-0.918 0.090 0 0.113 1.365 0.746 2.16 0.994 2.384 0.734 5.215 0.418 7.342-0.836 1.511-0.893 3.022-2.666 3.727-4.384 0.381-0.915 0.761-2.587 0.761-3.39 0-0.52 0.034-0.588 0.66-1.209 0.369-0.362 0.716-0.757 0.783-0.87 0.112-0.215 0.101-0.215-0.47-0.023-0.951 0.339-1.086 0.294-0.616-0.215 0.347-0.361 0.761-1.017 0.761-1.209 0-0.034-0.168 0.023-0.358 0.124-0.201 0.113-0.649 0.282-0.985 0.384l-0.604 0.192-0.548-0.373c-0.302-0.203-0.727-0.429-0.951-0.497-0.571-0.158-1.444-0.136-1.959 0.045-1.399 0.508-2.283 1.819-2.182 3.254z"></path>
</symbol>
<symbol id="icon-yout" viewBox="0 0 33 32">
<path fill="#fff" style="fill: var(--color1, #fff)" d="M23.598 10.499c0.734 0.201 1.313 0.795 1.509 1.549 0.357 1.367 0.357 4.218 0.357 4.218s0 2.851-0.357 4.218c-0.196 0.754-0.775 1.348-1.509 1.549-1.331 0.366-6.668 0.366-6.668 0.366s-5.337 0-6.668-0.366c-0.734-0.202-1.313-0.795-1.509-1.549-0.357-1.367-0.357-4.218-0.357-4.218s0-2.851 0.357-4.218c0.196-0.754 0.775-1.348 1.509-1.549 1.331-0.366 6.668-0.366 6.668-0.366s5.337 0 6.668 0.366zM15.33 13.867v5.333l4.267-2.667-4.267-2.667z"></path>
</symbol>
</defs>
</svg>
