<svg aria-hidden="true" style="position: absolute; width: 0; height: 0; overflow: hidden;" version="1.1" xmlns="http://www.w3.org/2000/svg" xmlns:xlink="http://www.w3.org/1999/xlink">
<defs>
<symbol id="icon-Airbnb-Logo" viewBox="0 0 103 32">
<path fill="#999" style="fill: var(--color1, #999)" d="M53.824 8.040c0 1.153-0.925 2.082-2.074 2.082s-2.074-0.929-2.074-2.082c0-1.153 0.893-2.082 2.074-2.082 1.18 0.032 2.074 0.961 2.074 2.082zM45.273 12.236c0 0.192 0 0.512 0 0.512s-0.989-1.281-3.095-1.281c-3.478 0-6.19 2.659-6.19 6.342 0 3.652 2.68 6.342 6.19 6.342 2.138 0 3.095-1.313 3.095-1.313v0.545c0 0.256 0.191 0.448 0.447 0.448h2.584v-12.044c0 0-2.361 0-2.584 0-0.255 0-0.447 0.224-0.447 0.448zM45.273 19.956c-0.479 0.705-1.436 1.313-2.584 1.313-2.042 0-3.605-1.281-3.605-3.459s1.563-3.459 3.605-3.459c1.117 0 2.138 0.641 2.584 1.313v4.292zM50.218 11.788h3.063v12.044h-3.063v-12.044zM95.97 11.467c-2.106 0-3.095 1.281-3.095 1.281v-6.759h-3.063v17.842c0 0 2.361 0 2.584 0 0.255 0 0.447-0.224 0.447-0.448v-0.545c0 0 0.989 1.313 3.095 1.313 3.478 0 6.19-2.691 6.19-6.342s-2.712-6.342-6.158-6.342zM95.459 21.237c-1.18 0-2.105-0.609-2.584-1.313v-4.292c0.479-0.641 1.499-1.313 2.584-1.313 2.042 0 3.605 1.281 3.605 3.459s-1.563 3.459-3.605 3.459zM88.217 16.689v7.175h-3.063v-6.823c0-1.986-0.638-2.787-2.361-2.787-0.925 0-1.883 0.48-2.489 1.185v8.392h-3.063v-12.044h2.425c0.255 0 0.447 0.224 0.447 0.448v0.512c0.893-0.929 2.074-1.281 3.254-1.281 1.34 0 2.457 0.384 3.35 1.153 1.085 0.897 1.5 2.050 1.5 4.068zM69.808 11.467c-2.106 0-3.095 1.281-3.095 1.281v-6.759h-3.063v17.842c0 0 2.361 0 2.584 0 0.255 0 0.447-0.224 0.447-0.448v-0.545c0 0 0.989 1.313 3.095 1.313 3.478 0 6.189-2.691 6.189-6.342 0.032-3.652-2.68-6.342-6.157-6.342zM69.297 21.237c-1.18 0-2.105-0.609-2.584-1.313v-4.292c0.479-0.641 1.499-1.313 2.584-1.313 2.042 0 3.605 1.281 3.605 3.459s-1.563 3.459-3.605 3.459zM61.002 11.467c0.925 0 1.404 0.16 1.404 0.16v2.851c0 0-2.552-0.865-4.148 0.961v8.424h-3.063v-12.076c0 0 2.361 0 2.584 0 0.255 0 0.447 0.224 0.447 0.448v0.512c0.574-0.673 1.819-1.281 2.776-1.281zM29.193 22.743c-0.16-0.384-0.319-0.801-0.479-1.153-0.255-0.577-0.511-1.121-0.734-1.634l-0.032-0.032c-2.201-4.805-4.562-9.674-7.051-14.479l-0.096-0.192c-0.255-0.48-0.51-0.993-0.766-1.506-0.319-0.577-0.638-1.185-1.149-1.762-1.021-1.281-2.489-1.986-4.052-1.986-1.595 0-3.031 0.705-4.084 1.922-0.479 0.577-0.83 1.185-1.149 1.762-0.255 0.513-0.51 1.025-0.766 1.506l-0.096 0.192c-2.457 4.805-4.85 9.674-7.051 14.479l-0.032 0.064c-0.223 0.513-0.479 1.057-0.734 1.634-0.16 0.352-0.319 0.737-0.479 1.153-0.415 1.185-0.542 2.306-0.383 3.459 0.351 2.402 1.946 4.42 4.148 5.317 0.83 0.352 1.691 0.513 2.584 0.513 0.255 0 0.574-0.032 0.83-0.064 1.053-0.128 2.138-0.48 3.191-1.089 1.308-0.737 2.552-1.794 3.956-3.331 1.404 1.538 2.68 2.595 3.956 3.331 1.053 0.609 2.138 0.961 3.19 1.089 0.255 0.032 0.574 0.064 0.83 0.064 0.893 0 1.787-0.16 2.584-0.513 2.233-0.897 3.797-2.947 4.148-5.317 0.255-1.121 0.128-2.242-0.287-3.427zM14.804 24.408c-1.723-2.178-2.84-4.228-3.222-5.958-0.16-0.737-0.191-1.377-0.096-1.954 0.064-0.512 0.255-0.961 0.51-1.345 0.606-0.865 1.627-1.409 2.808-1.409s2.233 0.513 2.808 1.409c0.255 0.384 0.447 0.833 0.51 1.345 0.096 0.577 0.064 1.249-0.096 1.954-0.383 1.698-1.5 3.748-3.222 5.958zM27.534 25.914c-0.223 1.666-1.34 3.107-2.903 3.748-0.766 0.32-1.595 0.416-2.425 0.32-0.798-0.096-1.595-0.352-2.425-0.833-1.149-0.641-2.297-1.634-3.637-3.107 2.106-2.595 3.382-4.965 3.86-7.079 0.223-0.993 0.255-1.89 0.16-2.723-0.128-0.801-0.415-1.538-0.861-2.178-0.989-1.441-2.648-2.274-4.499-2.274s-3.51 0.865-4.499 2.274c-0.447 0.641-0.734 1.377-0.861 2.178-0.128 0.833-0.096 1.762 0.16 2.723 0.479 2.114 1.787 4.517 3.86 7.111-1.308 1.473-2.489 2.466-3.637 3.107-0.83 0.48-1.627 0.737-2.425 0.833-0.861 0.096-1.691-0.032-2.425-0.32-1.563-0.641-2.68-2.082-2.903-3.748-0.096-0.801-0.032-1.602 0.287-2.498 0.096-0.32 0.255-0.641 0.415-1.025 0.223-0.512 0.479-1.057 0.734-1.602l0.032-0.064c2.201-4.773 4.562-9.642 7.019-14.382l0.096-0.192c0.255-0.48 0.51-0.993 0.766-1.473 0.255-0.513 0.542-0.993 0.893-1.409 0.67-0.769 1.563-1.185 2.552-1.185s1.882 0.416 2.552 1.185c0.351 0.416 0.638 0.897 0.893 1.409 0.255 0.48 0.51 0.993 0.766 1.473l0.096 0.192c2.425 4.773 4.786 9.642 6.987 14.414v0.032c0.255 0.513 0.479 1.089 0.734 1.602 0.16 0.384 0.319 0.705 0.415 1.025 0.255 0.833 0.351 1.634 0.223 2.466z"></path>
</symbol>
<symbol id="icon-Amazon-Logo" viewBox="0 0 107 32">
<path fill="#999" style="fill: var(--color1, #999)" d="M66.308 25.025c-6.178 4.548-15.133 6.975-22.842 6.975-10.81 0-20.542-3.994-27.905-10.636-0.578-0.522-0.060-1.234 0.634-0.827 7.946 4.618 17.77 7.396 27.919 7.396 6.844 0 14.374-1.414 21.297-4.35 1.046-0.444 1.921 0.684 0.898 1.442z"></path>
<path fill="#999" style="fill: var(--color1, #999)" d="M68.877 22.090c-0.787-1.008-5.22-0.476-7.21-0.24-0.606 0.074-0.699-0.453-0.153-0.832 3.531-2.482 9.325-1.766 10.001-0.934 0.675 0.837-0.176 6.638-3.494 9.406-0.509 0.425-0.995 0.199-0.768-0.365 0.745-1.858 2.415-6.023 1.624-7.035z"></path>
<path fill="#999" style="fill: var(--color1, #999)" d="M61.806 3.494v-2.413c0-0.365 0.278-0.61 0.611-0.61h10.815c0.347 0 0.625 0.25 0.625 0.61v2.066c-0.005 0.347-0.296 0.8-0.814 1.516l-5.605 7.992c2.083-0.051 4.281 0.259 6.169 1.322 0.425 0.24 0.541 0.592 0.573 0.938v2.575c0 0.351-0.389 0.763-0.796 0.55-3.327-1.743-7.747-1.932-11.426 0.019-0.375 0.203-0.768-0.203-0.768-0.555v-2.445c0-0.393 0.005-1.063 0.398-1.659l6.492-9.3h-5.65c-0.347 0-0.625-0.245-0.625-0.606z"></path>
<path fill="#999" style="fill: var(--color1, #999)" d="M22.354 18.549h-3.29c-0.315-0.023-0.565-0.259-0.588-0.559v-16.867c0-0.337 0.282-0.606 0.634-0.606h3.068c0.319 0.014 0.574 0.259 0.597 0.564v2.205h0.060c0.801-2.131 2.305-3.125 4.332-3.125 2.059 0 3.346 0.994 4.271 3.125 0.796-2.131 2.605-3.125 4.544-3.125 1.379 0 2.888 0.569 3.809 1.844 1.041 1.419 0.828 3.481 0.828 5.288l-0.005 10.645c0 0.337-0.282 0.61-0.634 0.61h-3.286c-0.329-0.023-0.592-0.287-0.592-0.61v-8.939c0-0.712 0.065-2.487-0.093-3.162-0.245-1.132-0.981-1.451-1.934-1.451-0.796 0-1.629 0.532-1.967 1.382s-0.305 2.274-0.305 3.231v8.939c0 0.337-0.282 0.61-0.634 0.61h-3.286c-0.333-0.023-0.592-0.287-0.592-0.61l-0.005-8.939c0-1.881 0.31-4.65-2.027-4.65-2.365 0-2.272 2.699-2.272 4.65v8.939c0 0.337-0.282 0.61-0.634 0.61z"></path>
<path fill="#999" style="fill: var(--color1, #999)" d="M83.167 0.162c4.882 0 7.525 4.188 7.525 9.513 0 5.145-2.92 9.226-7.525 9.226-4.795 0-7.405-4.188-7.405-9.406 0-5.251 2.643-9.332 7.405-9.332zM83.195 3.605c-2.425 0-2.577 3.3-2.577 5.357 0 2.062-0.033 6.462 2.55 6.462 2.55 0 2.67-3.55 2.67-5.713 0-1.424-0.060-3.125-0.491-4.474-0.37-1.174-1.106-1.632-2.152-1.632z"></path>
<path fill="#999" style="fill: var(--color1, #999)" d="M97.023 18.549h-3.277c-0.329-0.023-0.592-0.287-0.592-0.61l-0.005-16.871c0.027-0.31 0.301-0.55 0.634-0.55h3.049c0.287 0.014 0.523 0.208 0.588 0.471v2.579h0.060c0.921-2.307 2.212-3.407 4.484-3.407 1.477 0 2.916 0.532 3.841 1.988 0.861 1.35 0.861 3.619 0.861 5.251v10.617c-0.037 0.296-0.31 0.532-0.634 0.532h-3.299c-0.301-0.023-0.551-0.245-0.583-0.532v-9.161c0-1.844 0.213-4.544-2.059-4.544-0.801 0-1.537 0.536-1.902 1.35-0.463 1.031-0.523 2.057-0.523 3.194v9.083c-0.005 0.337-0.292 0.61-0.643 0.61z"></path>
<path fill="#999" style="fill: var(--color1, #999)" d="M53.184 10.493v-0.712c-2.383 0-4.896 0.508-4.896 3.31 0 1.419 0.74 2.38 2.004 2.38 0.921 0 1.754-0.569 2.277-1.493 0.648-1.137 0.615-2.205 0.615-3.485zM56.502 18.503c-0.218 0.194-0.532 0.208-0.777 0.079-1.092-0.906-1.291-1.327-1.888-2.191-1.805 1.84-3.087 2.39-5.424 2.39-2.772 0-4.924-1.706-4.924-5.121 0-2.667 1.444-4.484 3.508-5.371 1.786-0.786 4.281-0.924 6.187-1.142v-0.425c0-0.781 0.060-1.706-0.403-2.38-0.398-0.606-1.166-0.855-1.846-0.855-1.254 0-2.369 0.643-2.642 1.974-0.056 0.296-0.273 0.587-0.574 0.601l-3.188-0.342c-0.268-0.060-0.569-0.277-0.491-0.689 0.731-3.864 4.23-5.029 7.358-5.029 1.601 0 3.693 0.425 4.956 1.636 1.601 1.493 1.448 3.485 1.448 5.653v5.121c0 1.539 0.639 2.214 1.24 3.046 0.208 0.296 0.255 0.652-0.014 0.874-0.671 0.559-1.865 1.599-2.522 2.182l-0.005-0.009z"></path>
<path fill="#999" style="fill: var(--color1, #999)" d="M10.049 10.493v-0.712c-2.379 0-4.891 0.508-4.891 3.31 0 1.419 0.736 2.38 1.999 2.38 0.926 0 1.754-0.569 2.277-1.493 0.648-1.137 0.615-2.205 0.615-3.485zM13.367 18.503c-0.217 0.194-0.532 0.208-0.777 0.079-1.092-0.906-1.286-1.327-1.888-2.191-1.805 1.84-3.082 2.39-5.424 2.39-2.767 0-4.924-1.706-4.924-5.121 0-2.667 1.448-4.484 3.508-5.371 1.786-0.786 4.281-0.924 6.187-1.142v-0.425c0-0.781 0.060-1.706-0.398-2.38-0.403-0.606-1.171-0.855-1.846-0.855-1.254 0-2.374 0.643-2.647 1.974-0.056 0.296-0.273 0.587-0.569 0.601l-3.193-0.342c-0.268-0.060-0.565-0.277-0.491-0.689 0.736-3.864 4.23-5.029 7.358-5.029 1.601 0 3.693 0.425 4.956 1.636 1.601 1.493 1.448 3.485 1.448 5.653v5.121c0 1.539 0.639 2.214 1.24 3.046 0.213 0.296 0.259 0.652-0.009 0.874-0.671 0.559-1.865 1.599-2.522 2.182l-0.009-0.009z"></path>
</symbol>
<symbol id="icon-Google-Logo" viewBox="0 0 98 32">
<path fill="#999" style="fill: var(--color1, #999)" d="M94.512 19.557l2.705 1.804c-0.878 1.293-2.978 3.512-6.609 3.512-4.509 0-7.867-3.489-7.867-7.926 0-4.723 3.393-7.926 7.487-7.926 4.117 0 6.135 3.275 6.787 5.043l0.356 0.902-10.608 4.39c0.807 1.59 2.065 2.397 3.844 2.397s3.014-0.878 3.904-2.195zM86.194 16.697l7.084-2.943c-0.391-0.985-1.554-1.685-2.943-1.685-1.768 0-4.224 1.566-4.141 4.628z"></path>
<path fill="#999" style="fill: var(--color1, #999)" d="M77.627 0.939h3.417v23.209h-3.417v-23.209z"></path>
<path fill="#999" style="fill: var(--color1, #999)" d="M72.24 9.637h3.299v14.096c0 5.85-3.453 8.259-7.535 8.259-3.844 0-6.158-2.587-7.024-4.687l3.026-1.258c0.546 1.293 1.863 2.824 3.999 2.824 2.623 0 4.236-1.626 4.236-4.663v-1.139h-0.119c-0.783 0.949-2.278 1.804-4.177 1.804-3.963 0-7.594-3.453-7.594-7.903 0-4.473 3.631-7.962 7.594-7.962 1.887 0 3.394 0.842 4.177 1.768h0.119v-1.139zM72.477 16.97c0-2.8-1.863-4.841-4.236-4.841-2.397 0-4.414 2.041-4.414 4.841 0 2.765 2.017 4.77 4.414 4.77 2.373 0.012 4.236-2.005 4.236-4.77z"></path>
<path fill="#999" style="fill: var(--color1, #999)" d="M41.591 16.911c0 4.568-3.56 7.926-7.926 7.926s-7.926-3.37-7.926-7.926c0-4.592 3.56-7.938 7.926-7.938s7.926 3.346 7.926 7.938zM38.126 16.911c0-2.848-2.065-4.806-4.462-4.806s-4.462 1.958-4.462 4.806c0 2.824 2.065 4.806 4.462 4.806s4.462-1.982 4.462-4.806z"></path>
<path fill="#999" style="fill: var(--color1, #999)" d="M58.903 16.946c0 4.568-3.56 7.926-7.926 7.926s-7.926-3.358-7.926-7.926c0-4.592 3.56-7.926 7.926-7.926s7.926 3.322 7.926 7.926zM55.426 16.946c0-2.848-2.065-4.806-4.461-4.806s-4.462 1.958-4.462 4.806c0 2.824 2.065 4.806 4.462 4.806 2.409 0 4.461-1.993 4.461-4.806z"></path>
<path fill="#999" style="fill: var(--color1, #999)" d="M12.71 21.396c-4.972 0-8.864-4.011-8.864-8.982s3.892-8.982 8.864-8.982c2.682 0 4.639 1.056 6.087 2.409l2.385-2.385c-2.017-1.934-4.711-3.405-8.472-3.405-6.811 0-12.542 5.553-12.542 12.364s5.731 12.364 12.542 12.364c3.678 0 6.455-1.21 8.626-3.465 2.231-2.231 2.919-5.363 2.919-7.903 0-0.795-0.095-1.614-0.202-2.219h-11.344v3.299h8.081c-0.237 2.065-0.89 3.477-1.851 4.438-1.163 1.175-3.002 2.468-6.229 2.468z"></path>
</symbol>
<symbol id="icon-Netflix-Logo" viewBox="0 0 119 32">
<path fill="#999" style="fill: var(--color1, #999)" d="M16.426 29.937c-1.78 0.313-3.59 0.407-5.464 0.656l-5.714-16.75v17.469c-1.78 0.187-3.403 0.437-5.089 0.687v-32h4.746l6.494 18.157v-18.157h5.027v29.937zM26.261 11.719c1.936 0 4.902-0.094 6.681-0.094v5c-2.217 0-4.808 0-6.681 0.094v7.438c2.935-0.187 5.87-0.438 8.835-0.531v4.812l-13.831 1.094v-29.531h13.831v5h-8.835v6.719zM53.673 5h-5.183v23c-1.686 0-3.372 0-4.995 0.062v-23.062h-5.183v-5h15.361l-0 5zM61.79 11.375h6.837v5h-6.837v11.344h-4.902v-27.719h13.956v5h-9.054v6.375zM78.961 23.344c2.841 0.062 5.713 0.281 8.492 0.437v4.938c-4.464-0.281-8.929-0.562-13.487-0.656v-28.062h4.995v23.344zM91.669 29.063c1.592 0.094 3.278 0.188 4.901 0.375v-29.437h-4.901v29.063zM118.456 0l-6.338 15.219 6.338 16.781c-1.873-0.25-3.747-0.594-5.62-0.906l-3.59-9.25-3.653 8.5c-1.811-0.313-3.559-0.407-5.37-0.657l6.431-14.656-5.807-15.031h5.37l3.278 8.406 3.497-8.406h5.463z"></path>
</symbol>
<symbol id="icon-Slack-Logo" viewBox="0 0 126 32">
<path fill="#999" style="fill: var(--color1, #999)" d="M40.304 25.071l1.562-3.628c1.688 1.26 3.931 1.915 6.148 1.915 1.638 0 2.671-0.63 2.671-1.587-0.025-2.671-9.802-0.58-9.877-7.282-0.025-3.402 2.998-6.022 7.282-6.022 2.545 0 5.090 0.63 6.904 2.066l-1.461 3.704c-1.663-1.058-3.729-1.814-5.694-1.814-1.335 0-2.217 0.63-2.217 1.436 0.025 2.62 9.877 1.184 9.978 7.584 0 3.477-2.948 5.921-7.181 5.921-3.099 0-5.946-0.731-8.113-2.293zM100.247 20.132c-0.781 1.361-2.243 2.293-3.931 2.293-2.494 0-4.51-2.016-4.51-4.51s2.016-4.51 4.51-4.51c1.689 0 3.15 0.932 3.931 2.293l4.309-2.394c-1.613-2.872-4.712-4.838-8.24-4.838-5.215 0-9.449 4.233-9.449 9.449s4.233 9.449 9.449 9.449c3.553 0 6.627-1.94 8.24-4.838l-4.309-2.394zM57.765 0.63h5.392v26.381h-5.392v-26.381zM106.672 0.63v26.381h5.393v-7.912l6.4 7.912h6.903l-8.138-9.398 7.533-8.769h-6.601l-6.097 7.282v-15.496h-5.393zM79.183 20.183c-0.781 1.285-2.394 2.243-4.208 2.243-2.495 0-4.51-2.016-4.51-4.51s2.015-4.51 4.51-4.51c1.814 0 3.427 1.008 4.208 2.318v4.46zM79.183 8.844v2.142c-0.882-1.487-3.074-2.52-5.367-2.52-4.737 0-8.466 4.183-8.466 9.424s3.729 9.474 8.466 9.474c2.293 0 4.485-1.033 5.367-2.52v2.142h5.392v-18.142h-5.392z"></path>
<path fill="#999" style="fill: var(--color1, #999)" d="M6.968 20.157c0 1.839-1.487 3.326-3.326 3.326s-3.326-1.487-3.326-3.326c0-1.839 1.487-3.326 3.326-3.326h3.326v3.326zM8.631 20.157c0-1.839 1.487-3.326 3.326-3.326s3.326 1.487 3.326 3.326v8.315c0 1.839-1.487 3.326-3.326 3.326s-3.326-1.487-3.326-3.326v-8.315z"></path>
<path fill="#999" style="fill: var(--color1, #999)" d="M11.957 6.803c-1.839 0-3.326-1.487-3.326-3.326s1.487-3.326 3.326-3.326c1.839 0 3.326 1.487 3.326 3.326v3.326h-3.326zM11.957 8.491c1.839 0 3.326 1.487 3.326 3.326s-1.487 3.326-3.326 3.326h-8.34c-1.839 0-3.326-1.487-3.326-3.326s1.487-3.326 3.326-3.326h8.34z"></path>
<path fill="#999" style="fill: var(--color1, #999)" d="M25.286 11.817c0-1.839 1.487-3.326 3.326-3.326s3.326 1.487 3.326 3.326c0 1.839-1.487 3.326-3.326 3.326h-3.326v-3.326zM23.623 11.817c0 1.839-1.487 3.326-3.326 3.326s-3.326-1.487-3.326-3.326v-8.34c0-1.839 1.487-3.326 3.326-3.326s3.326 1.487 3.326 3.326v8.34z"></path>
<path fill="#999" style="fill: var(--color1, #999)" d="M20.297 25.146c1.839 0 3.326 1.487 3.326 3.326s-1.487 3.326-3.326 3.326c-1.839 0-3.326-1.487-3.326-3.326v-3.326h3.326zM20.297 23.483c-1.839 0-3.326-1.487-3.326-3.326s1.487-3.326 3.326-3.326h8.34c1.839 0 3.326 1.487 3.326 3.326s-1.487 3.326-3.326 3.326h-8.34z"></path>
</symbol>
</defs>
</svg>
