<svg aria-hidden="true" style="position: absolute; width: 0; height: 0; overflow: hidden;" version="1.1" xmlns="http://www.w3.org/2000/svg" xmlns:xlink="http://www.w3.org/1999/xlink">
<defs>
<symbol id="icon-Airbnb-Logo" viewBox="0 0 103 32">
<path fill="#999" style="fill: var(--color1, #999)" d="M53.824 8.040c0 1.153-0.925 2.082-2.074 2.082s-2.074-0.929-2.074-2.082c0-1.153 0.893-2.082 2.074-2.082 1.18 0.032 2.074 0.961 2.074 2.082zM45.273 12.236c0 0.192 0 0.512 0 0.512s-0.989-1.281-3.095-1.281c-3.478 0-6.19 2.659-6.19 6.342 0 3.652 2.68 6.342 6.19 6.342 2.138 0 3.095-1.313 3.095-1.313v0.545c0 0.256 0.191 0.448 0.447 0.448h2.584v-12.044c0 0-2.361 0-2.584 0-0.255 0-0.447 0.224-0.447 0.448zM45.273 19.956c-0.479 0.705-1.436 1.313-2.584 1.313-2.042 0-3.605-1.281-3.605-3.459s1.563-3.459 3.605-3.459c1.117 0 2.138 0.641 2.584 1.313v4.292zM50.218 11.788h3.063v12.044h-3.063v-12.044zM95.97 11.467c-2.106 0-3.095 1.281-3.095 1.281v-6.759h-3.063v17.842c0 0 2.361 0 2.584 0 0.255 0 0.447-0.224 0.447-0.448v-0.545c0 0 0.989 1.313 3.095 1.313 3.478 0 6.19-2.691 6.19-6.342s-2.712-6.342-6.158-6.342zM95.459 21.237c-1.18 0-2.105-0.609-2.584-1.313v-4.292c0.479-0.641 1.499-1.313 2.584-1.313 2.042 0 3.605 1.281 3.605 3.459s-1.563 3.459-3.605 3.459zM88.217 16.689v7.175h-3.063v-6.823c0-1.986-0.638-2.787-2.361-2.787-0.925 0-1.883 0.48-2.489 1.185v8.392h-3.063v-12.044h2.425c0.255 0 0.447 0.224 0.447 0.448v0.512c0.893-0.929 2.074-1.281 3.254-1.281 1.34 0 2.457 0.384 3.35 1.153 1.085 0.897 1.5 2.050 1.5 4.068zM69.808 11.467c-2.106 0-3.095 1.281-3.095 1.281v-6.759h-3.063v17.842c0 0 2.361 0 2.584 0 0.255 0 0.447-0.224 0.447-0.448v-0.545c0 0 0.989 1.313 3.095 1.313 3.478 0 6.189-2.691 6.189-6.342 0.032-3.652-2.68-6.342-6.157-6.342zM69.297 21.237c-1.18 0-2.105-0.609-2.584-1.313v-4.292c0.479-0.641 1.499-1.313 2.584-1.313 2.042 0 3.605 1.281 3.605 3.459s-1.563 3.459-3.605 3.459zM61.002 11.467c0.925 0 1.404 0.16 1.404 0.16v2.851c0 0-2.552-0.865-4.148 0.961v8.424h-3.063v-12.076c0 0 2.361 0 2.584 0 0.255 0 0.447 0.224 0.447 0.448v0.512c0.574-0.673 1.819-1.281 2.776-1.281zM29.193 22.743c-0.16-0.384-0.319-0.801-0.479-1.153-0.255-0.577-0.511-1.121-0.734-1.634l-0.032-0.032c-2.201-4.805-4.562-9.674-7.051-14.479l-0.096-0.192c-0.255-0.48-0.51-0.993-0.766-1.506-0.319-0.577-0.638-1.185-1.149-1.762-1.021-1.281-2.489-1.986-4.052-1.986-1.595 0-3.031 0.705-4.084 1.922-0.479 0.577-0.83 1.185-1.149 1.762-0.255 0.513-0.51 1.025-0.766 1.506l-0.096 0.192c-2.457 4.805-4.85 9.674-7.051 14.479l-0.032 0.064c-0.223 0.513-0.479 1.057-0.734 1.634-0.16 0.352-0.319 0.737-0.479 1.153-0.415 1.185-0.542 2.306-0.383 3.459 0.351 2.402 1.946 4.42 4.148 5.317 0.83 0.352 1.691 0.513 2.584 0.513 0.255 0 0.574-0.032 0.83-0.064 1.053-0.128 2.138-0.48 3.191-1.089 1.308-0.737 2.552-1.794 3.956-3.331 1.404 1.538 2.68 2.595 3.956 3.331 1.053 0.609 2.138 0.961 3.19 1.089 0.255 0.032 0.574 0.064 0.83 0.064 0.893 0 1.787-0.16 2.584-0.513 2.233-0.897 3.797-2.947 4.148-5.317 0.255-1.121 0.128-2.242-0.287-3.427zM14.804 24.408c-1.723-2.178-2.84-4.228-3.222-5.958-0.16-0.737-0.191-1.377-0.096-1.954 0.064-0.512 0.255-0.961 0.51-1.345 0.606-0.865 1.627-1.409 2.808-1.409s2.233 0.513 2.808 1.409c0.255 0.384 0.447 0.833 0.51 1.345 0.096 0.577 0.064 1.249-0.096 1.954-0.383 1.698-1.5 3.748-3.222 5.958zM27.534 25.914c-0.223 1.666-1.34 3.107-2.903 3.748-0.766 0.32-1.595 0.416-2.425 0.32-0.798-0.096-1.595-0.352-2.425-0.833-1.149-0.641-2.297-1.634-3.637-3.107 2.106-2.595 3.382-4.965 3.86-7.079 0.223-0.993 0.255-1.89 0.16-2.723-0.128-0.801-0.415-1.538-0.861-2.178-0.989-1.441-2.648-2.274-4.499-2.274s-3.51 0.865-4.499 2.274c-0.447 0.641-0.734 1.377-0.861 2.178-0.128 0.833-0.096 1.762 0.16 2.723 0.479 2.114 1.787 4.517 3.86 7.111-1.308 1.473-2.489 2.466-3.637 3.107-0.83 0.48-1.627 0.737-2.425 0.833-0.861 0.096-1.691-0.032-2.425-0.32-1.563-0.641-2.68-2.082-2.903-3.748-0.096-0.801-0.032-1.602 0.287-2.498 0.096-0.32 0.255-0.641 0.415-1.025 0.223-0.512 0.479-1.057 0.734-1.602l0.032-0.064c2.201-4.773 4.562-9.642 7.019-14.382l0.096-0.192c0.255-0.48 0.51-0.993 0.766-1.473 0.255-0.513 0.542-0.993 0.893-1.409 0.67-0.769 1.563-1.185 2.552-1.185s1.882 0.416 2.552 1.185c0.351 0.416 0.638 0.897 0.893 1.409 0.255 0.48 0.51 0.993 0.766 1.473l0.096 0.192c2.425 4.773 4.786 9.642 6.987 14.414v0.032c0.255 0.513 0.479 1.089 0.734 1.602 0.16 0.384 0.319 0.705 0.415 1.025 0.255 0.833 0.351 1.634 0.223 2.466z"></path>
</symbol>
<symbol id="icon-Amazon-Logo" viewBox="0 0 107 32">
<path fill="#999" style="fill: var(--color1, #999)" d="M66.308 25.025c-6.178 4.548-15.133 6.975-22.842 6.975-10.81 0-20.542-3.994-27.905-10.636-0.578-0.522-0.060-1.234 0.634-0.827 7.946 4.618 17.77 7.396 27.919 7.396 6.844 0 14.374-1.414 21.297-4.35 1.046-0.444 1.921 0.684 0.898 1.442z"></path>
<path fill="#999" style="fill: var(--color1, #999)" d="M68.877 22.090c-0.787-1.008-5.22-0.476-7.21-0.24-0.606 0.074-0.699-0.453-0.153-0.832 3.531-2.482 9.325-1.766 10.001-0.934 0.675 0.837-0.176 6.638-3.494 9.406-0.509 0.425-0.995 0.199-0.768-0.365 0.745-1.858 2.415-6.023 1.624-7.035z"></path>
<path fill="#999" style="fill: var(--color1, #999)" d="M61.806 3.494v-2.413c0-0.365 0.278-0.61 0.611-0.61h10.815c0.347 0 0.625 0.25 0.625 0.61v2.066c-0.005 0.347-0.296 0.8-0.814 1.516l-5.605 7.992c2.083-0.051 4.281 0.259 6.169 1.322 0.425 0.24 0.541 0.592 0.573 0.938v2.575c0 0.351-0.389 0.763-0.796 0.55-3.327-1.743-7.747-1.932-11.426 0.019-0.375 0.203-0.768-0.203-0.768-0.555v-2.445c0-0.393 0.005-1.063 0.398-1.659l6.492-9.3h-5.65c-0.347 0-0.625-0.245-0.625-0.606z"></path>
<path fill="#999" style="fill: var(--color1, #999)" d="M22.354 18.549h-3.29c-0.315-0.023-0.565-0.259-0.588-0.559v-16.867c0-0.337 0.282-0.606 0.634-0.606h3.068c0.319 0.014 0.574 0.259 0.597 0.564v2.205h0.060c0.801-2.131 2.305-3.125 4.332-3.125 2.059 0 3.346 0.994 4.271 3.125 0.796-2.131 2.605-3.125 4.544-3.125 1.379 0 2.888 0.569 3.809 1.844 1.041 1.419 0.828 3.481 0.828 5.288l-0.005 10.645c0 0.337-0.282 0.61-0.634 0.61h-3.286c-0.329-0.023-0.592-0.287-0.592-0.61v-8.939c0-0.712 0.065-2.487-0.093-3.162-0.245-1.132-0.981-1.451-1.934-1.451-0.796 0-1.629 0.532-1.967 1.382s-0.305 2.274-0.305 3.231v8.939c0 0.337-0.282 0.61-0.634 0.61h-3.286c-0.333-0.023-0.592-0.287-0.592-0.61l-0.005-8.939c0-1.881 0.31-4.65-2.027-4.65-2.365 0-2.272 2.699-2.272 4.65v8.939c0 0.337-0.282 0.61-0.634 0.61z"></path>
<path fill="#999" style="fill: var(--color1, #999)" d="M83.167 0.162c4.882 0 7.525 4.188 7.525 9.513 0 5.145-2.92 9.226-7.525 9.226-4.795 0-7.405-4.188-7.405-9.406 0-5.251 2.643-9.332 7.405-9.332zM83.195 3.605c-2.425 0-2.577 3.3-2.577 5.357 0 2.062-0.033 6.462 2.55 6.462 2.55 0 2.67-3.55 2.67-5.713 0-1.424-0.060-3.125-0.491-4.474-0.37-1.174-1.106-1.632-2.152-1.632z"></path>
<path fill="#999" style="fill: var(--color1, #999)" d="M97.023 18.549h-3.277c-0.329-0.023-0.592-0.287-0.592-0.61l-0.005-16.871c0.027-0.31 0.301-0.55 0.634-0.55h3.049c0.287 0.014 0.523 0.208 0.588 0.471v2.579h0.060c0.921-2.307 2.212-3.407 4.484-3.407 1.477 0 2.916 0.532 3.841 1.988 0.861 1.35 0.861 3.619 0.861 5.251v10.617c-0.037 0.296-0.31 0.532-0.634 0.532h-3.299c-0.301-0.023-0.551-0.245-0.583-0.532v-9.161c0-1.844 0.213-4.544-2.059-4.544-0.801 0-1.537 0.536-1.902 1.35-0.463 1.031-0.523 2.057-0.523 3.194v9.083c-0.005 0.337-0.292 0.61-0.643 0.61z"></path>
<path fill="#999" style="fill: var(--color1, #999)" d="M53.184 10.493v-0.712c-2.383 0-4.896 0.508-4.896 3.31 0 1.419 0.74 2.38 2.004 2.38 0.921 0 1.754-0.569 2.277-1.493 0.648-1.137 0.615-2.205 0.615-3.485zM56.502 18.503c-0.218 0.194-0.532 0.208-0.777 0.079-1.092-0.906-1.291-1.327-1.888-2.191-1.805 1.84-3.087 2.39-5.424 2.39-2.772 0-4.924-1.706-4.924-5.121 0-2.667 1.444-4.484 3.508-5.371 1.786-0.786 4.281-0.924 6.187-1.142v-0.425c0-0.781 0.060-1.706-0.403-2.38-0.398-0.606-1.166-0.855-1.846-0.855-1.254 0-2.369 0.643-2.642 1.974-0.056 0.296-0.273 0.587-0.574 0.601l-3.188-0.342c-0.268-0.060-0.569-0.277-0.491-0.689 0.731-3.864 4.23-5.029 7.358-5.029 1.601 0 3.693 0.425 4.956 1.636 1.601 1.493 1.448 3.485 1.448 5.653v5.121c0 1.539 0.639 2.214 1.24 3.046 0.208 0.296 0.255 0.652-0.014 0.874-0.671 0.559-1.865 1.599-2.522 2.182l-0.005-0.009z"></path>
<path fill="#999" style="fill: var(--color1, #999)" d="M10.049 10.493v-0.712c-2.379 0-4.891 0.508-4.891 3.31 0 1.419 0.736 2.38 1.999 2.38 0.926 0 1.754-0.569 2.277-1.493 0.648-1.137 0.615-2.205 0.615-3.485zM13.367 18.503c-0.217 0.194-0.532 0.208-0.777 0.079-1.092-0.906-1.286-1.327-1.888-2.191-1.805 1.84-3.082 2.39-5.424 2.39-2.767 0-4.924-1.706-4.924-5.121 0-2.667 1.448-4.484 3.508-5.371 1.786-0.786 4.281-0.924 6.187-1.142v-0.425c0-0.781 0.060-1.706-0.398-2.38-0.403-0.606-1.171-0.855-1.846-0.855-1.254 0-2.374 0.643-2.647 1.974-0.056 0.296-0.273 0.587-0.569 0.601l-3.193-0.342c-0.268-0.060-0.565-0.277-0.491-0.689 0.736-3.864 4.23-5.029 7.358-5.029 1.601 0 3.693 0.425 4.956 1.636 1.601 1.493 1.448 3.485 1.448 5.653v5.121c0 1.539 0.639 2.214 1.24 3.046 0.213 0.296 0.259 0.652-0.009 0.874-0.671 0.559-1.865 1.599-2.522 2.182l-0.009-0.009z"></path>
</symbol>
<symbol id="icon-Google-Logo" viewBox="0 0 98 32">
<path fill="#999" style="fill: var(--color1, #999)" d="M94.512 19.557l2.705 1.804c-0.878 1.293-2.978 3.512-6.609 3.512-4.509 0-7.867-3.489-7.867-7.926 0-4.723 3.393-7.926 7.487-7.926 4.117 0 6.135 3.275 6.787 5.043l0.356 0.902-10.608 4.39c0.807 1.59 2.065 2.397 3.844 2.397s3.014-0.878 3.904-2.195zM86.194 16.697l7.084-2.943c-0.391-0.985-1.554-1.685-2.943-1.685-1.768 0-4.224 1.566-4.141 4.628z"></path>
<path fill="#999" style="fill: var(--color1, #999)" d="M77.627 0.939h3.417v23.209h-3.417v-23.209z"></path>
<path fill="#999" style="fill: var(--color1, #999)" d="M72.24 9.637h3.299v14.096c0 5.85-3.453 8.259-7.535 8.259-3.844 0-6.158-2.587-7.024-4.687l3.026-1.258c0.546 1.293 1.863 2.824 3.999 2.824 2.623 0 4.236-1.626 4.236-4.663v-1.139h-0.119c-0.783 0.949-2.278 1.804-4.177 1.804-3.963 0-7.594-3.453-7.594-7.903 0-4.473 3.631-7.962 7.594-7.962 1.887 0 3.394 0.842 4.177 1.768h0.119v-1.139zM72.477 16.97c0-2.8-1.863-4.841-4.236-4.841-2.397 0-4.414 2.041-4.414 4.841 0 2.765 2.017 4.77 4.414 4.77 2.373 0.012 4.236-2.005 4.236-4.77z"></path>
<path fill="#999" style="fill: var(--color1, #999)" d="M41.591 16.911c0 4.568-3.56 7.926-7.926 7.926s-7.926-3.37-7.926-7.926c0-4.592 3.56-7.938 7.926-7.938s7.926 3.346 7.926 7.938zM38.126 16.911c0-2.848-2.065-4.806-4.462-4.806s-4.462 1.958-4.462 4.806c0 2.824 2.065 4.806 4.462 4.806s4.462-1.982 4.462-4.806z"></path>
<path fill="#999" style="fill: var(--color1, #999)" d="M58.903 16.946c0 4.568-3.56 7.926-7.926 7.926s-7.926-3.358-7.926-7.926c0-4.592 3.56-7.926 7.926-7.926s7.926 3.322 7.926 7.926zM55.426 16.946c0-2.848-2.065-4.806-4.461-4.806s-4.462 1.958-4.462 4.806c0 2.824 2.065 4.806 4.462 4.806 2.409 0 4.461-1.993 4.461-4.806z"></path>
<path fill="#999" style="fill: var(--color1, #999)" d="M12.71 21.396c-4.972 0-8.864-4.011-8.864-8.982s3.892-8.982 8.864-8.982c2.682 0 4.639 1.056 6.087 2.409l2.385-2.385c-2.017-1.934-4.711-3.405-8.472-3.405-6.811 0-12.542 5.553-12.542 12.364s5.731 12.364 12.542 12.364c3.678 0 6.455-1.21 8.626-3.465 2.231-2.231 2.919-5.363 2.919-7.903 0-0.795-0.095-1.614-0.202-2.219h-11.344v3.299h8.081c-0.237 2.065-0.89 3.477-1.851 4.438-1.163 1.175-3.002 2.468-6.229 2.468z"></path>
</symbol>
<symbol id="icon-Netflix-Logo" viewBox="0 0 119 32">
<path fill="#999" style="fill: var(--color1, #999)" d="M16.426 29.937c-1.78 0.313-3.59 0.407-5.464 0.656l-5.714-16.75v17.469c-1.78 0.187-3.403 0.437-5.089 0.687v-32h4.746l6.494 18.157v-18.157h5.027v29.937zM26.261 11.719c1.936 0 4.902-0.094 6.681-0.094v5c-2.217 0-4.808 0-6.681 0.094v7.438c2.935-0.187 5.87-0.438 8.835-0.531v4.812l-13.831 1.094v-29.531h13.831v5h-8.835v6.719zM53.673 5h-5.183v23c-1.686 0-3.372 0-4.995 0.062v-23.062h-5.183v-5h15.361l-0 5zM61.79 11.375h6.837v5h-6.837v11.344h-4.902v-27.719h13.956v5h-9.054v6.375zM78.961 23.344c2.841 0.062 5.713 0.281 8.492 0.437v4.938c-4.464-0.281-8.929-0.562-13.487-0.656v-28.062h4.995v23.344zM91.669 29.063c1.592 0.094 3.278 0.188 4.901 0.375v-29.437h-4.901v29.063zM118.456 0l-6.338 15.219 6.338 16.781c-1.873-0.25-3.747-0.594-5.62-0.906l-3.59-9.25-3.653 8.5c-1.811-0.313-3.559-0.407-5.37-0.657l6.431-14.656-5.807-15.031h5.37l3.278 8.406 3.497-8.406h5.463z"></path>
</symbol>
<symbol id="icon-Slack-Logo" viewBox="0 0 126 32">
<path fill="#999" style="fill: var(--color1, #999)" d="M40.304 25.071l1.562-3.628c1.688 1.26 3.931 1.915 6.148 1.915 1.638 0 2.671-0.63 2.671-1.587-0.025-2.671-9.802-0.58-9.877-7.282-0.025-3.402 2.998-6.022 7.282-6.022 2.545 0 5.090 0.63 6.904 2.066l-1.461 3.704c-1.663-1.058-3.729-1.814-5.694-1.814-1.335 0-2.217 0.63-2.217 1.436 0.025 2.62 9.877 1.184 9.978 7.584 0 3.477-2.948 5.921-7.181 5.921-3.099 0-5.946-0.731-8.113-2.293zM100.247 20.132c-0.781 1.361-2.243 2.293-3.931 2.293-2.494 0-4.51-2.016-4.51-4.51s2.016-4.51 4.51-4.51c1.689 0 3.15 0.932 3.931 2.293l4.309-2.394c-1.613-2.872-4.712-4.838-8.24-4.838-5.215 0-9.449 4.233-9.449 9.449s4.233 9.449 9.449 9.449c3.553 0 6.627-1.94 8.24-4.838l-4.309-2.394zM57.765 0.63h5.392v26.381h-5.392v-26.381zM106.672 0.63v26.381h5.393v-7.912l6.4 7.912h6.903l-8.138-9.398 7.533-8.769h-6.601l-6.097 7.282v-15.496h-5.393zM79.183 20.183c-0.781 1.285-2.394 2.243-4.208 2.243-2.495 0-4.51-2.016-4.51-4.51s2.015-4.51 4.51-4.51c1.814 0 3.427 1.008 4.208 2.318v4.46zM79.183 8.844v2.142c-0.882-1.487-3.074-2.52-5.367-2.52-4.737 0-8.466 4.183-8.466 9.424s3.729 9.474 8.466 9.474c2.293 0 4.485-1.033 5.367-2.52v2.142h5.392v-18.142h-5.392z"></path>
<path fill="#999" style="fill: var(--color1, #999)" d="M6.968 20.157c0 1.839-1.487 3.326-3.326 3.326s-3.326-1.487-3.326-3.326c0-1.839 1.487-3.326 3.326-3.326h3.326v3.326zM8.631 20.157c0-1.839 1.487-3.326 3.326-3.326s3.326 1.487 3.326 3.326v8.315c0 1.839-1.487 3.326-3.326 3.326s-3.326-1.487-3.326-3.326v-8.315z"></path>
<path fill="#999" style="fill: var(--color1, #999)" d="M11.957 6.803c-1.839 0-3.326-1.487-3.326-3.326s1.487-3.326 3.326-3.326c1.839 0 3.326 1.487 3.326 3.326v3.326h-3.326zM11.957 8.491c1.839 0 3.326 1.487 3.326 3.326s-1.487 3.326-3.326 3.326h-8.34c-1.839 0-3.326-1.487-3.326-3.326s1.487-3.326 3.326-3.326h8.34z"></path>
<path fill="#999" style="fill: var(--color1, #999)" d="M25.286 11.817c0-1.839 1.487-3.326 3.326-3.326s3.326 1.487 3.326 3.326c0 1.839-1.487 3.326-3.326 3.326h-3.326v-3.326zM23.623 11.817c0 1.839-1.487 3.326-3.326 3.326s-3.326-1.487-3.326-3.326v-8.34c0-1.839 1.487-3.326 3.326-3.326s3.326 1.487 3.326 3.326v8.34z"></path>
<path fill="#999" style="fill: var(--color1, #999)" d="M20.297 25.146c1.839 0 3.326 1.487 3.326 3.326s-1.487 3.326-3.326 3.326c-1.839 0-3.326-1.487-3.326-3.326v-3.326h3.326zM20.297 23.483c-1.839 0-3.326-1.487-3.326-3.326s1.487-3.326 3.326-3.326h8.34c1.839 0 3.326 1.487 3.326 3.326s-1.487 3.326-3.326 3.326h-8.34z"></path>
</symbol>
<symbol id="icon-Logo" viewBox="0 0 53 32">
<path  d="M3.65 21.273l7.049 7.049c0.004 0.004 0.009 0.008 0.013 0.013s0.010 0.010 0.015 0.015c2.057 2.057 4.769 3.329 7.666 3.597s5.796-0.487 8.195-2.132c2.399 1.645 5.298 2.399 8.195 2.132s5.609-1.54 7.666-3.597l7.049-7.049c2.196-2.197 3.493-5.135 3.636-8.238s-0.879-6.148-2.864-8.537c-1.985-2.389-4.791-3.951-7.868-4.379s-6.203 0.309-8.765 2.066c-2.074-1.423-4.531-2.184-7.046-2.185s-4.972 0.76-7.047 2.181c-2.559-1.768-5.686-2.515-8.768-2.094s-5.894 1.978-7.886 4.367c-1.992 2.389-3.018 5.436-2.877 8.543s1.438 6.049 3.637 8.248zM37.465 5.743c1.591-0.76 3.4-0.933 5.107-0.488s3.201 1.478 4.219 2.918c1.018 1.44 1.495 3.193 1.345 4.951s-0.915 3.405-2.162 4.652l-7.049 7.049c-1.094 1.093-2.5 1.82-4.024 2.082s-3.092 0.045-4.488-0.619l4.986-4.986c1.912-1.902 3.15-4.378 3.525-7.049 0.083-0.584 0.124-1.173 0.125-1.763 0.005-2.332-0.649-4.618-1.886-6.594 0.1-0.053 0.201-0.104 0.302-0.152v-0zM21.301 7.202c1.404-1.395 3.303-2.176 5.282-2.172s3.875 0.791 5.275 2.19c1.399 1.399 2.187 3.296 2.19 5.275s-0.778 3.878-2.172 5.282l-5.287 5.287-5.287-5.287c-1.4-1.403-2.186-3.304-2.186-5.286s0.786-3.883 2.186-5.286v-0.001zM7.174 7.174c1.099-1.096 2.512-1.824 4.043-2.082s3.105-0.034 4.503 0.641c0.101 0.048 0.2 0.099 0.298 0.152-1.241 1.979-1.897 4.268-1.892 6.604 0.001 0.59 0.042 1.179 0.125 1.763 0.375 2.671 1.613 5.146 3.525 7.049l4.984 4.984c-1.395 0.665-2.962 0.881-4.486 0.62s-2.928-0.987-4.023-2.079c-0.005-0.005-0.010-0.010-0.015-0.015s-0.009-0.008-0.013-0.013l-7.050-7.050c-1.402-1.402-2.19-3.304-2.19-5.287s0.788-3.885 2.19-5.287l0 0z"></path>
</symbol>
<symbol id="icon-verified_user" viewBox="0 0 34 32">
<path fill="#fff" style="fill: var(--color1, #fff)" d="M16.546 1.317l-12.409 5.268v7.902c0 7.31 5.295 14.145 12.409 15.805 7.115-1.66 12.409-8.495 12.409-15.805v-7.902l-12.409-5.268zM26.197 14.488c0 5.953-4.109 11.445-9.652 13.079-5.543-1.633-9.652-7.125-9.652-13.079v-6.19l9.652-4.096 9.652 4.096v6.19zM10.217 15.265l-1.944 1.857 5.515 5.268 11.030-10.537-1.944-1.87-9.086 8.68-3.571-3.398z"></path>
</symbol>
<symbol id="icon-headphones" viewBox="0 0 34 32">
<path fill="none" stroke="#fff" style="stroke: var(--color1, #fff)" stroke-linejoin="round" stroke-linecap="round" stroke-miterlimit="4" stroke-width="2.3415" d="M4.136 23.707v-7.902c0-3.144 1.307-6.159 3.635-8.382s5.484-3.472 8.775-3.472 6.448 1.249 8.775 3.472c2.327 2.223 3.635 5.238 3.635 8.382v7.902"></path>
<path fill="none" stroke="#fff" style="stroke: var(--color1, #fff)" stroke-linejoin="round" stroke-linecap="round" stroke-miterlimit="4" stroke-width="2.3415" d="M28.955 25.024c0 0.699-0.291 1.369-0.808 1.863s-1.219 0.771-1.95 0.771h-1.379c-0.731 0-1.433-0.278-1.95-0.771s-0.808-1.164-0.808-1.863v-3.951c0-0.699 0.291-1.369 0.808-1.863s1.219-0.771 1.95-0.771h4.136v6.585zM4.136 25.024c0 0.699 0.291 1.369 0.808 1.863s1.219 0.771 1.95 0.771h1.379c0.731 0 1.433-0.278 1.95-0.771s0.808-1.164 0.808-1.863v-3.951c0-0.699-0.29-1.369-0.808-1.863s-1.219-0.771-1.95-0.771h-4.136v6.585z"></path>
</symbol>
<symbol id="icon-award" viewBox="0 0 34 32">
<path fill="none" stroke="#fff" style="stroke: var(--color1, #fff)" stroke-linejoin="round" stroke-linecap="round" stroke-miterlimit="4" stroke-width="2.3415" d="M16.546 19.756c5.331 0 9.652-4.128 9.652-9.22s-4.321-9.22-9.652-9.22c-5.331 0-9.652 4.128-9.652 9.22s4.321 9.22 9.652 9.22z"></path>
<path fill="none" stroke="#fff" style="stroke: var(--color1, #fff)" stroke-linejoin="round" stroke-linecap="round" stroke-miterlimit="4" stroke-width="2.3415" d="M11.32 18.294l-1.668 11.999 6.894-3.951 6.894 3.951-1.668-12.012"></path>
</symbol>
<symbol id="icon-bull" viewBox="0 0 33 32">
    <path fill="#fff" style="fill: var(--color1, #fff)" d="M25.463 15.988c0 0.577-0.059 1.153-0.174 1.715-0.113 0.548-0.279 1.087-0.497 1.602-0.213 0.506-0.478 0.993-0.787 1.447-0.305 0.451-0.655 0.875-1.041 1.261-0.386 0.384-0.811 0.734-1.263 1.040-0.456 0.307-0.944 0.571-1.45 0.786-0.515 0.217-1.055 0.384-1.603 0.496-0.562 0.116-1.141 0.175-1.719 0.175s-1.157-0.059-1.718-0.175c-0.549-0.112-1.088-0.279-1.603-0.496-0.506-0.214-0.994-0.479-1.45-0.786-0.451-0.306-0.876-0.656-1.262-1.040-0.386-0.386-0.737-0.81-1.042-1.261-0.307-0.454-0.573-0.942-0.787-1.447-0.218-0.515-0.385-1.053-0.498-1.602-0.114-0.562-0.172-1.138-0.172-1.715s0.058-1.155 0.173-1.716c0.113-0.548 0.28-1.088 0.498-1.601 0.214-0.506 0.479-0.994 0.787-1.448 0.305-0.452 0.656-0.875 1.042-1.261 0.386-0.384 0.81-0.734 1.262-1.039 0.456-0.308 0.944-0.573 1.45-0.787 0.515-0.218 1.055-0.384 1.604-0.496 0.562-0.115 1.14-0.173 1.718-0.173s1.156 0.058 1.719 0.173c0.548 0.112 1.087 0.278 1.603 0.496 0.506 0.215 0.994 0.479 1.45 0.787 0.451 0.305 0.876 0.654 1.263 1.039 0.385 0.387 0.736 0.809 1.041 1.261 0.309 0.454 0.574 0.942 0.787 1.448 0.218 0.514 0.385 1.053 0.497 1.601 0.115 0.56 0.174 1.138 0.174 1.716zM13.82 9.406c-2.032 0.958-3.549 2.828-4.022 5.082 0.192 0.002 3.229 0.040 6.728-0.888-1.261-2.238-2.609-4.064-2.706-4.193zM17.13 14.72c-3.752 1.122-7.353 1.041-7.482 1.036-0.002 0.078-0.006 0.154-0.006 0.232 0 1.869 0.706 3.574 1.867 4.863-0.002-0.004 1.992-3.537 5.925-4.807 0.095-0.032 0.192-0.060 0.288-0.087-0.183-0.413-0.383-0.828-0.591-1.237zM21.742 10.527c-1.283-1.13-2.968-1.815-4.813-1.815-0.592 0-1.167 0.072-1.717 0.204 0.109 0.146 1.478 1.96 2.724 4.245 2.75-1.029 3.788-2.607 3.806-2.634zM18.218 17.162c-0.016 0.005-0.032 0.010-0.048 0.016-4.3 1.497-5.704 4.513-5.719 4.546 1.237 0.961 2.789 1.54 4.479 1.54 1.009 0 1.97-0.205 2.845-0.577-0.108-0.636-0.531-2.864-1.557-5.526zM21.002 22.023c1.636-1.103 2.799-2.854 3.123-4.882-0.15-0.048-2.189-0.693-4.541-0.316 0.956 2.623 1.344 4.759 1.418 5.198zM18.498 14.245c0.169 0.347 0.333 0.7 0.484 1.055 0.054 0.127 0.106 0.252 0.157 0.377 2.503-0.315 4.97 0.215 5.075 0.236-0.017-1.725-0.635-3.308-1.657-4.548-0.014 0.020-1.183 1.706-4.060 2.879z"></path>
    </symbol>
    <symbol id="icon-inst" viewBox="0 0 33 32">
    <path fill="#fff" style="fill: var(--color1, #fff)" d="M16.931 7.467c-2.317 0-2.608 0.010-3.519 0.052-0.909 0.042-1.528 0.185-2.071 0.396-0.561 0.218-1.037 0.509-1.512 0.984s-0.766 0.95-0.985 1.511c-0.212 0.543-0.356 1.163-0.396 2.071-0.041 0.91-0.051 1.201-0.051 3.519s0.010 2.608 0.052 3.518c0.042 0.909 0.186 1.529 0.396 2.071 0.218 0.561 0.51 1.037 0.984 1.512s0.95 0.767 1.511 0.985c0.543 0.211 1.163 0.355 2.072 0.396 0.91 0.041 1.201 0.052 3.518 0.052s2.608-0.010 3.518-0.052c0.908-0.042 1.529-0.185 2.072-0.396 0.561-0.218 1.036-0.51 1.511-0.985s0.766-0.95 0.985-1.512c0.21-0.543 0.354-1.163 0.396-2.071 0.041-0.91 0.052-1.2 0.052-3.518s-0.011-2.608-0.052-3.519c-0.043-0.909-0.187-1.529-0.396-2.071-0.219-0.561-0.51-1.037-0.985-1.512s-0.949-0.766-1.511-0.984c-0.544-0.211-1.164-0.355-2.073-0.396-0.91-0.041-1.2-0.052-3.518-0.052h0.003zM16.165 9.004c0.227-0 0.481 0 0.765 0 2.278 0 2.548 0.008 3.448 0.049 0.832 0.038 1.284 0.177 1.584 0.294 0.398 0.155 0.682 0.34 0.981 0.638s0.484 0.583 0.639 0.981c0.117 0.3 0.256 0.752 0.294 1.584 0.041 0.9 0.050 1.17 0.050 3.447s-0.009 2.548-0.050 3.447c-0.038 0.832-0.177 1.284-0.294 1.584-0.155 0.398-0.34 0.682-0.639 0.98s-0.582 0.484-0.981 0.638c-0.3 0.117-0.752 0.256-1.584 0.294-0.9 0.041-1.17 0.050-3.448 0.050s-2.549-0.009-3.448-0.050c-0.832-0.038-1.284-0.177-1.585-0.294-0.398-0.155-0.683-0.34-0.981-0.638s-0.484-0.582-0.639-0.981c-0.117-0.3-0.256-0.752-0.294-1.584-0.041-0.899-0.049-1.17-0.049-3.448s0.008-2.548 0.049-3.447c0.038-0.832 0.177-1.284 0.294-1.584 0.155-0.398 0.34-0.683 0.639-0.981s0.583-0.484 0.981-0.639c0.301-0.117 0.753-0.256 1.585-0.294 0.787-0.036 1.092-0.046 2.683-0.048v0.002zM21.486 10.421c-0.565 0-1.024 0.458-1.024 1.024s0.459 1.024 1.024 1.024c0.565 0 1.024-0.459 1.024-1.024s-0.459-1.024-1.024-1.024zM16.931 11.618c-2.42 0-4.382 1.962-4.382 4.382s1.962 4.381 4.382 4.381 4.382-1.961 4.382-4.381c0-2.42-1.962-4.382-4.382-4.382zM16.931 13.155c1.571 0 2.845 1.273 2.845 2.845s-1.274 2.844-2.845 2.844c-1.571 0-2.845-1.274-2.845-2.844s1.274-2.845 2.845-2.845z"></path>
    </symbol>
    <symbol id="icon-twt" viewBox="0 0 33 32">
    <path fill="#fff" style="fill: var(--color1, #fff)" d="M16.451 13.005l0.034 0.554-0.56-0.068c-2.037-0.26-3.816-1.141-5.327-2.621l-0.739-0.734-0.19 0.542c-0.403 1.209-0.146 2.486 0.694 3.344 0.448 0.475 0.347 0.542-0.425 0.26-0.269-0.090-0.504-0.158-0.526-0.124-0.078 0.079 0.19 1.107 0.403 1.514 0.291 0.565 0.884 1.119 1.533 1.446l0.548 0.26-0.649 0.011c-0.627 0-0.649 0.011-0.582 0.249 0.224 0.734 1.108 1.514 2.093 1.853l0.694 0.237-0.604 0.362c-0.895 0.52-1.947 0.814-2.999 0.836-0.504 0.011-0.918 0.056-0.918 0.090 0 0.113 1.365 0.746 2.16 0.994 2.384 0.734 5.215 0.418 7.342-0.836 1.511-0.893 3.022-2.666 3.727-4.384 0.381-0.915 0.761-2.587 0.761-3.39 0-0.52 0.034-0.588 0.66-1.209 0.369-0.362 0.716-0.757 0.783-0.87 0.112-0.215 0.101-0.215-0.47-0.023-0.951 0.339-1.086 0.294-0.616-0.215 0.347-0.361 0.761-1.017 0.761-1.209 0-0.034-0.168 0.023-0.358 0.124-0.201 0.113-0.649 0.282-0.985 0.384l-0.604 0.192-0.548-0.373c-0.302-0.203-0.727-0.429-0.951-0.497-0.571-0.158-1.444-0.136-1.959 0.045-1.399 0.508-2.283 1.819-2.182 3.254z"></path>
    </symbol>
    <symbol id="icon-yout" viewBox="0 0 33 32">
    <path fill="" style="fill: var(--color1, #fff)" d="M23.598 10.499c0.734 0.201 1.313 0.795 1.509 1.549 0.357 1.367 0.357 4.218 0.357 4.218s0 2.851-0.357 4.218c-0.196 0.754-0.775 1.348-1.509 1.549-1.331 0.366-6.668 0.366-6.668 0.366s-5.337 0-6.668-0.366c-0.734-0.202-1.313-0.795-1.509-1.549-0.357-1.367-0.357-4.218-0.357-4.218s0-2.851 0.357-4.218c0.196-0.754 0.775-1.348 1.509-1.549 1.331-0.366 6.668-0.366 6.668-0.366s5.337 0 6.668 0.366zM15.33 13.867v5.333l4.267-2.667-4.267-2.667z"></path>
    </symbol>

    <symbol id="icon-facebook-1" viewBox="0 0 32 32">
    <path  d="M21.329 5.313h2.921v-5.088c-0.504-0.069-2.237-0.225-4.256-0.225-4.212 0-7.097 2.649-7.097 7.519v4.481h-4.648v5.688h4.648v14.312h5.699v-14.311h4.46l0.708-5.688h-5.169v-3.919c0.001-1.644 0.444-2.769 2.735-2.769z"></path>
    </symbol>
    <symbol id="icon-twitter-1" viewBox="0 0 32 32">
    <path  d="M32 6.078c-1.19 0.522-2.458 0.868-3.78 1.036 1.36-0.812 2.398-2.088 2.886-3.626-1.268 0.756-2.668 1.29-4.16 1.588-1.204-1.282-2.92-2.076-4.792-2.076-3.632 0-6.556 2.948-6.556 6.562 0 0.52 0.044 1.020 0.152 1.496-5.454-0.266-10.28-2.88-13.522-6.862-0.566 0.982-0.898 2.106-0.898 3.316 0 2.272 1.17 4.286 2.914 5.452-1.054-0.020-2.088-0.326-2.964-0.808 0 0.020 0 0.046 0 0.072 0 3.188 2.274 5.836 5.256 6.446-0.534 0.146-1.116 0.216-1.72 0.216-0.42 0-0.844-0.024-1.242-0.112 0.85 2.598 3.262 4.508 6.13 4.57-2.232 1.746-5.066 2.798-8.134 2.798-0.538 0-1.054-0.024-1.57-0.090 2.906 1.874 6.35 2.944 10.064 2.944 12.072 0 18.672-10 18.672-18.668 0-0.29-0.010-0.57-0.024-0.848 1.302-0.924 2.396-2.078 3.288-3.406z"></path>
    </symbol>
    <symbol id="icon-instagram-2" viewBox="0 0 32 32">
    <path  d="M31.969 9.408c-0.075-1.7-0.35-2.869-0.744-3.882-0.406-1.075-1.032-2.038-1.851-2.838-0.8-0.813-1.769-1.444-2.832-1.844-1.019-0.394-2.182-0.669-3.882-0.744-1.713-0.081-2.257-0.1-6.601-0.1s-4.888 0.019-6.595 0.094c-1.7 0.075-2.869 0.35-3.882 0.744-1.075 0.406-2.038 1.031-2.838 1.85-0.813 0.8-1.444 1.769-1.844 2.832-0.394 1.019-0.669 2.182-0.744 3.882-0.081 1.713-0.1 2.257-0.1 6.601s0.019 4.888 0.094 6.595c0.075 1.7 0.35 2.869 0.744 3.882 0.406 1.075 1.038 2.038 1.85 2.838 0.8 0.813 1.769 1.444 2.832 1.844 1.019 0.394 2.182 0.669 3.882 0.744 1.706 0.075 2.25 0.094 6.595 0.094s4.888-0.019 6.595-0.094c1.7-0.075 2.869-0.35 3.882-0.744 2.151-0.832 3.851-2.532 4.682-4.682 0.394-1.019 0.669-2.182 0.744-3.882 0.075-1.707 0.094-2.251 0.094-6.595s-0.006-4.888-0.081-6.595zM29.087 22.473c-0.069 1.563-0.331 2.407-0.55 2.969-0.538 1.394-1.644 2.5-3.038 3.038-0.563 0.219-1.413 0.481-2.969 0.55-1.688 0.075-2.194 0.094-6.464 0.094s-4.782-0.019-6.464-0.094c-1.563-0.069-2.407-0.331-2.969-0.55-0.694-0.256-1.325-0.663-1.838-1.194-0.531-0.519-0.938-1.144-1.194-1.838-0.219-0.563-0.481-1.413-0.55-2.969-0.075-1.688-0.094-2.194-0.094-6.464s0.019-4.782 0.094-6.464c0.069-1.563 0.331-2.407 0.55-2.969 0.256-0.694 0.663-1.325 1.2-1.838 0.519-0.531 1.144-0.938 1.838-1.194 0.563-0.219 1.413-0.481 2.969-0.55 1.688-0.075 2.194-0.094 6.464-0.094 4.276 0 4.782 0.019 6.464 0.094 1.563 0.069 2.407 0.331 2.969 0.55 0.694 0.256 1.325 0.662 1.838 1.194 0.531 0.519 0.938 1.144 1.194 1.838 0.219 0.563 0.481 1.413 0.55 2.969 0.075 1.688 0.094 2.194 0.094 6.464s-0.019 4.77-0.094 6.458z"></path>
    <path  d="M16.059 7.783c-4.538 0-8.22 3.682-8.22 8.22s3.682 8.22 8.22 8.22c4.539 0 8.22-3.682 8.22-8.22s-3.682-8.22-8.22-8.22zM16.059 21.335c-2.944 0-5.332-2.388-5.332-5.332s2.388-5.332 5.332-5.332c2.944 0 5.332 2.388 5.332 5.332s-2.388 5.332-5.332 5.332z"></path>
    <path  d="M26.524 7.458c0 1.060-0.859 1.919-1.919 1.919s-1.919-0.859-1.919-1.919c0-1.060 0.859-1.919 1.919-1.919s1.919 0.859 1.919 1.919z"></path>
    </symbol>
    <symbol id="icon-linkedin-1" viewBox="0 0 32 32">
    <path  d="M31.992 32v-0.001h0.008v-11.736c0-5.741-1.236-10.164-7.948-10.164-3.227 0-5.392 1.771-6.276 3.449h-0.093v-2.913h-6.364v21.364h6.627v-10.579c0-2.785 0.528-5.479 3.977-5.479 3.399 0 3.449 3.179 3.449 5.657v10.401h6.62z"></path>
    <path d="M0.528 10.636h6.635v21.364h-6.635v-21.364z"></path>
    <path  d="M3.843 0c-2.121 0-3.843 1.721-3.843 3.843s1.721 3.879 3.843 3.879c2.121 0 3.843-1.757 3.843-3.879-0.001-2.121-1.723-3.843-3.843-3.843v0z"></path>
    </symbol>
    <symbol id="icon-social_youtube_icon" viewBox="0 0 32 32">
    <path d="M31.788 9.3c0-2.813-2.069-5.075-4.625-5.075-3.462-0.162-6.994-0.225-10.6-0.225-0.188 0-0.375 0-0.563 0s-0.375 0-0.563 0c-3.6 0-7.137 0.063-10.6 0.225-2.55 0-4.619 2.275-4.619 5.087-0.156 2.225-0.225 4.45-0.219 6.675-0.006 2.225 0.063 4.45 0.212 6.681 0 2.813 2.069 5.094 4.619 5.094 3.637 0.169 7.369 0.244 11.162 0.238 3.8 0.012 7.519-0.063 11.162-0.238 2.556 0 4.625-2.281 4.625-5.094 0.15-2.231 0.219-4.456 0.212-6.688 0.013-2.225-0.056-4.45-0.206-6.681zM12.938 22.119v-12.281l9.063 6.137-9.063 6.144z"></path>
    </symbol>
    <symbol id="icon-apachespark" viewBox="0 0 32 32">
    <path fill="#e25a1c" style="fill: var(--color1, #e25a1c)" d="M14.416 0c-0.567 0.017-1.127 0.287-1.595 0.807-0.248 0.28-0.466 0.596-0.645 0.936l-0.013 0.026c-0.473 0.889-0.567 1.887-0.741 2.857 0.362-2.708 0.024-0.86-0.307 0.99l-0.661 4.459c-0.036 0.213-0.128 0.303-0.325 0.364-2.356 0.741-4.716 1.48-7.063 2.245-0.516 0.167-1.031 0.385-1.485 0.675-1.389 0.887-1.595 2.337-0.553 3.613 0.461 0.563 1.053 0.953 1.712 1.248 1.467 0.653 2.936 1.301 4.4 1.96 0.025 0.013 0.048 0.017 0.071 0.025h-0.005l1.741 0.713c0 0.031 0.003 0.060 0 0.097-0.267 2.707-0.52 5.417-0.773 8.127-0.053 0.559-0.016 1.108 0.179 1.64 0.423 1.16 1.42 1.531 2.508 0.935 0.496-0.272 0.888-0.663 1.249-1.091 1.829-2.164 3.661-4.325 5.484-6.496 0.148-0.177 0.273-0.2 0.484-0.131 0.465 0.156 0.929 0.308 1.393 0.463h0.001c0.027 0.016 0.060 0.027 0.097 0.040l0.189 0.056c1.664 0.555 3.573 1.033 5.239 1.587 0.533 0.176 0.829 0.219 1.393 0.131 0.415-0.064 0.789-0.083 1.104-0.315 0.803-0.44 1.327-1.276 1.317-2.243-0.007-0.569-0.205-1.084-0.467-1.581-1.093-2.075-2.183-4.151-3.281-6.221-0.104-0.197-0.101-0.324 0.049-0.5 1.841-2.153 3.675-4.315 5.511-6.473 0.363-0.427 0.684-0.877 0.871-1.411 0.411-1.171-0.12-2.093-1.333-2.321-0.187-0.033-0.402-0.052-0.622-0.052-0.365 0-0.718 0.053-1.051 0.151l0.026-0.007c-2.632 0.695-5.263 1.388-7.891 2.093-0.233 0.063-0.347 0.020-0.473-0.192-2.242-3.88-3.31-5.628-4.389-7.369l1.161 2.012c-0.258-0.428-0.546-0.799-0.871-1.133l0.001 0.001c-0.495-0.493-1.069-0.732-1.637-0.716zM14.645 4.937c0.105 0.072 0.19 0.167 0.25 0.277l0.002 0.004c1.16 1.928 2.323 3.853 3.479 5.784 0.093 0.157 0.18 0.213 0.369 0.161 2.033-0.547 4.069-1.084 6.105-1.623 0.489-0.131 0.98-0.257 1.471-0.385-0.019 0.104-0.067 0.195-0.134 0.267l0-0c-1.679 1.973-3.355 3.949-5.039 5.917-0.147 0.173-0.16 0.293-0.053 0.493 1.249 2.404 2.357 4.412 3.331 6.347l-4.928-1.359c-0.717-0.24-1.436-0.477-2.153-0.719-0.217-0.073-0.333-0.040-0.48 0.133-1.664 1.984-3.339 3.96-5.012 5.939-0.061 0.079-0.142 0.14-0.236 0.175l-0.004 0.001c0.047-0.504 0.091-1.009 0.139-1.515 0.199-2.096 0.396-4.192 0.601-6.288-0.040-0.424 0.156-0.54-0.429-0.727-1.991-0.791-4.461-1.761-6.421-2.54 0.088-0.081 0.196-0.143 0.314-0.177l0.006-0.001c2.396-0.76 4.793-1.52 7.192-2.273 0.169-0.053 0.265-0.123 0.281-0.311 0.017-0.197 0.067-0.392 0.101-0.588 0.321-1.817 0.644-3.635 0.968-5.451 0.091-0.515 0.187-1.028 0.28-1.543z"></path>
</symbol>
<symbol id="icon-2103623" viewBox="0 0 19 32">
<path d="M7.463 0.060c-0.247 0.115-0.482 0.482-0.603 0.948-0.035 0.135-0.035 0.153 0.003 0.19 0.063 0.063 0.115 0.005 0.168-0.18 0.095-0.353 0.29-0.69 0.455-0.79 0.107-0.068 0.268-0.068 0.402-0.003 0.093 0.045 0.32 0.26 0.48 0.455l0.055 0.068-0.143 0.027c-0.438 0.085-0.825 0.223-1.255 0.443-0.442 0.225-0.732 0.443-1.14 0.845-0.495 0.49-0.798 0.91-1.123 1.558-0.133 0.268-0.315 0.71-0.39 0.952l-0.035 0.107-0.275 0.095c-1.393 0.473-2.192 1.188-2.428 2.165-0.052 0.215-0.060 0.75-0.012 1.010 0.090 0.51 0.395 1.22 0.767 1.777 0.103 0.158 0.19 0.293 0.192 0.303 0.002 0.008-0.147 0.137-0.333 0.285-0.395 0.315-0.935 0.848-1.205 1.185-1.025 1.283-1.295 2.515-0.805 3.683 0.195 0.467 0.48 0.865 0.96 1.343l0.34 0.337-0.018 0.1c-0.010 0.055-0.030 0.308-0.045 0.563-0.117 2.023 0.012 3.665 0.4 5.012 0.272 0.945 0.625 1.655 1.087 2.2l0.172 0.2-0.007 0.35c-0.005 0.192 0.005 0.625 0.020 0.962 0.063 1.442 0.232 2.407 0.535 3.063l0.087 0.188-0.188 0.328c-0.103 0.18-0.185 0.343-0.185 0.365 0 0.070 0.152 0.328 0.265 0.445 0.118 0.12 0.328 0.238 0.432 0.238 0.035 0 0.080 0.017 0.105 0.040 0.050 0.045 0.44 0.108 1.16 0.183 1.76 0.19 2.83 0.11 3.172-0.238 0.090-0.093 0.115-0.16 0.13-0.348 0.005-0.082 0.023-0.297 0.037-0.475 0.065-0.817 0.053-2.48-0.020-2.945l-0.015-0.093h0.998l0.043 0.367c0.135 1.145 0.325 2.055 0.467 2.255 0.043 0.063 0.045 0.098 0.025 0.558l-0.023 0.488-0.078 0.113c-0.1 0.142-0.12 0.28-0.060 0.41 0.065 0.14 0.592 0.655 0.76 0.745l0.135 0.075 1.165-0.032c1.037-0.025 1.723-0.067 1.938-0.115 0.18-0.040 0.688-0.223 0.813-0.293 0.605-0.337 1.010-0.94 1.175-1.75 0.14-0.683 0.108-2.27-0.078-3.67-0.027-0.212-0.055-0.41-0.060-0.438s-0.040-0.215-0.075-0.42l-0.068-0.367 0.155-0.17c0.505-0.547 1.005-1.282 1.313-1.918l0.133-0.275 0.145-0.060c0.517-0.207 0.957-0.555 1.047-0.825 0.058-0.175 0.040-0.36-0.052-0.53-0.085-0.155-0.337-0.392-0.52-0.488l-0.135-0.070-0.010-0.203c-0.008-0.133 0-0.233 0.023-0.3 0.117-0.33 0.12-0.355 0.12-0.988 0-0.582-0.012-0.742-0.102-1.475-0.075-0.615-0.35-2.22-0.46-2.685-0.012-0.055-0.015-0.11-0.010-0.12 0.025-0.043-0.067-0.575-0.175-1-0.24-0.943-0.758-2.588-1.085-3.447-0.133-0.345-0.16-0.563-0.158-1.235 0.005-1.923-0.307-3.533-0.97-4.982-0.24-0.525-0.595-1.115-0.89-1.482l-0.113-0.14 0.060-0.255c0.14-0.58 0.137-0.978-0.008-1.208-0.207-0.328-0.703-0.265-1.367 0.167l-0.215 0.14-0.367-0.135c-1.205-0.448-2.303-0.623-3.357-0.535-0.235 0.020-0.24 0.020-0.227-0.030 0.010-0.037-0.025-0.1-0.125-0.223-0.168-0.203-0.297-0.31-0.473-0.393-0.165-0.077-0.298-0.077-0.457-0.003zM10.225 0.912c0.938 0.145 1.867 0.447 2.438 0.787 0.688 0.412 0.985 0.655 1.303 1.052 1.063 1.335 1.74 3.413 1.828 5.588l0.015 0.412-0.085 0.090c-0.145 0.15-0.717 0.627-1.082 0.9-1.34 1.002-2.815 1.72-4.148 2.018-0.455 0.102-0.938 0.162-1.43 0.18l-0.45 0.015-0.238-0.090c-0.7-0.273-1.39-0.408-2.183-0.432l-0.492-0.015-0.050-0.080c-0.027-0.045-0.133-0.16-0.232-0.252-0.525-0.5-1.235-0.76-2.080-0.76h-0.303l-0.147-0.19c-0.99-1.258-1.353-2.482-1.010-3.42 0.285-0.782 1.068-1.397 2.297-1.808 0.145-0.048 0.272-0.098 0.285-0.107 0.010-0.013 0.070-0.162 0.128-0.338 0.1-0.295 0.162-0.425 0.162-0.338 0 0.018 0.018 0.053 0.040 0.077 0.037 0.043 0.032 0.053-0.060 0.14-0.082 0.080-0.105 0.125-0.14 0.275-0.098 0.433-0.015 0.58 0.397 0.723 0.173 0.060 0.24 0.070 0.487 0.070 0.41 0.003 0.725-0.103 0.895-0.295 0.1-0.112 0.165-0.33 0.143-0.468-0.020-0.112-0.115-0.24-0.207-0.275l-0.065-0.025 0.077-0.045c0.107-0.067 0.175-0.165 0.195-0.277 0.020-0.125 0.008-0.145-0.088-0.13-0.065 0.010-0.075 0.022-0.075 0.085 0 0.043-0.022 0.095-0.058 0.13-0.077 0.077-0.348 0.098-0.905 0.065-0.39-0.020-0.428-0.027-0.468-0.077-0.025-0.030-0.045-0.067-0.045-0.085 0-0.020-0.022-0.038-0.048-0.042-0.048-0.007-0.043-0.022 0.045-0.208 0.265-0.56 0.665-1.127 1.1-1.565 0.748-0.745 1.58-1.157 2.643-1.31 0.328-0.047 1.245-0.032 1.61 0.025zM13.863 1.107c0.115 0.115 0.148 0.25 0.127 0.555-0.012 0.235-0.088 0.645-0.123 0.677-0.010 0.010-0.085-0.047-0.17-0.125-0.14-0.13-0.627-0.468-0.947-0.655l-0.133-0.077 0.148-0.1c0.322-0.22 0.655-0.355 0.883-0.355 0.117-0.002 0.143 0.008 0.215 0.080zM15.797 9.355l-0.005 0.332-0.020-0.262c-0.012-0.145-0.025-0.27-0.030-0.283-0.002-0.010-0.135 0.090-0.293 0.223-1.898 1.588-4.1 2.612-5.92 2.75-0.127 0.008-0.235 0.025-0.242 0.035-0.018 0.027 0.11 0.133 0.332 0.275 0.115 0.072 0.203 0.135 0.197 0.143-0.005 0.005-0.095-0.040-0.197-0.102-0.102-0.060-0.293-0.165-0.422-0.23l-0.235-0.123 0.313-0.015c1.732-0.090 3.638-0.863 5.463-2.223 0.332-0.245 0.885-0.7 0.973-0.797 0.027-0.027 0.057-0.053 0.070-0.053 0.010 0 0.018 0.15 0.018 0.33zM15.953 10.38c0.095 0.178 0.622 1.783 0.883 2.682 0.27 0.94 0.395 1.502 0.385 1.742l-0.008 0.145-0.375 0.277c-2.402 1.777-4.81 2.733-7.613 3.015-0.607 0.060-1.96 0.060-2.575-0.003-1.47-0.145-2.828-0.462-4.063-0.953-0.462-0.185-0.81-0.345-0.7-0.325 0.415 0.073 0.937 0.082 1.325 0.025 0.138-0.020 0.29-0.043 0.337-0.050l0.087-0.012-0.075 0.025c-0.155 0.052-0.563 0.105-0.925 0.122l-0.375 0.017 0.175 0.082c0.547 0.258 1.897 0.637 3.025 0.85 0.89 0.17 1.263 0.203 2.237 0.203 1.382 0 2.225-0.080 3.282-0.315 1.5-0.332 2.947-0.913 4.355-1.745 0.488-0.287 1.467-0.95 1.63-1.1 0.205-0.188 0.223-0.242 0.185-0.498-0.080-0.523-0.4-1.652-0.905-3.192-0.165-0.502-0.31-0.943-0.322-0.982-0.027-0.080-0.012-0.088 0.027-0.012zM3.942 10.54c0.572 0.098 1.117 0.38 1.46 0.755l0.13 0.143-0.098 0.018c-0.105 0.018-0.33 0.023-0.247 0.002 0.115-0.025 0.188-0.065 0.188-0.107 0-0.095-0.298-0.313-0.715-0.52-0.418-0.21-0.623-0.252-1.38-0.295l-0.308-0.015-0.243 0.158c-0.703 0.457-1.127 0.865-1.228 1.178-0.045 0.135-0.002 0.24 0.147 0.38 0.135 0.127 0.235 0.15 0.308 0.070 0.022-0.025 0.070-0.13 0.103-0.232 0.055-0.17 0.152-0.373 0.18-0.373 0.005 0-0.018 0.055-0.050 0.12-0.083 0.162-0.147 0.422-0.132 0.523 0.013 0.078 0.010 0.082-0.065 0.082-0.21 0-0.41-0.13-0.518-0.332-0.052-0.1-0.058-0.123-0.030-0.21 0.080-0.27 0.438-0.67 0.875-0.977 0.377-0.268 0.598-0.39 0.743-0.408 0.167-0.023 0.627 0 0.88 0.043zM2.675 11.27c-0.047 0.037-0.155 0.13-0.237 0.205l-0.15 0.135 0.125-0.133c0.12-0.127 0.302-0.28 0.335-0.277 0.007 0.002-0.025 0.033-0.072 0.070zM2.875 11.252c0.042 0.075 0.015 0.085-0.035 0.010-0.022-0.035-0.030-0.063-0.018-0.063 0.015 0 0.038 0.023 0.053 0.053zM1.343 11.475c-0.41 0.443-0.838 1.215-1.032 1.863-0.087 0.3-0.112 0.815-0.050 1.145 0.12 0.637 0.45 1.203 1.065 1.82 0.41 0.415 0.52 0.47 1.037 0.512 0.57 0.045 1.612-0.188 2.232-0.5 0.55-0.277 0.905-0.557 2.23-1.762 1.223-1.113 1.845-1.607 2.31-1.84l0.273-0.137-0.348-0.165c-0.815-0.387-1.325-0.557-2.053-0.69-0.275-0.050-0.402-0.057-0.92-0.057-0.45 0-0.668 0.010-0.875 0.045-0.567 0.090-1.077 0.248-1.31 0.402l-0.12 0.082 0.025-0.068c0.045-0.117 0.617-0.325 1.218-0.443 0.43-0.085 1.313-0.107 1.775-0.047 0.62 0.082 1.223 0.25 1.84 0.515 0.318 0.135 0.86 0.42 0.86 0.45 0 0.010-0.035 0.025-0.080 0.035-0.043 0.008-0.158 0.055-0.255 0.1-0.502 0.242-1.225 0.832-2.723 2.223-0.768 0.713-0.928 0.845-1.303 1.095-1.048 0.698-2.228 0.962-3.27 0.733-0.185-0.040-0.205-0.052-0.4-0.227-0.61-0.55-1.038-1.188-1.208-1.808-0.052-0.19-0.070-0.313-0.080-0.613-0.015-0.412 0.015-0.645 0.135-1.023 0.083-0.268 0.295-0.713 0.37-0.783 0.032-0.030 0.093-0.123 0.135-0.203 0.13-0.24 0.575-0.805 0.637-0.805 0.012 0-0.042 0.068-0.117 0.15zM1.403 11.585c-0.063 0.115-0.117 0.207-0.123 0.203-0.020-0.018 0.202-0.412 0.232-0.412 0.005 0-0.045 0.095-0.11 0.21zM2.643 11.58c-0.215 0.217-0.328 0.402-0.357 0.59-0.022 0.145 0.022 0.162 0.333 0.127 0.342-0.037 0.75-0.117 0.875-0.172 0.080-0.035 0.11-0.065 0.13-0.13l0.022-0.082 0.002 0.092c0.002 0.082-0.007 0.095-0.103 0.143-0.2 0.095-0.625 0.178-1.123 0.215l-0.215 0.018 0.022-0.145c0.042-0.283 0.225-0.585 0.455-0.76 0.070-0.055 0.135-0.1 0.145-0.1s-0.075 0.092-0.188 0.205zM5 11.515c-0.223 0.053-0.357 0.063-0.162 0.010 0.098-0.025 0.202-0.045 0.237-0.045s0 0.015-0.075 0.035zM3.775 11.575c0 0.012-0.018 0.018-0.038 0.010-0.020-0.010-0.038-0.020-0.038-0.025s0.018-0.010 0.038-0.010c0.020 0 0.038 0.010 0.038 0.025zM4.375 11.672c-0.157 0.055-0.343 0.12-0.407 0.15-0.067 0.030-0.132 0.053-0.145 0.053s-0.022-0.060-0.020-0.133c0.002-0.125 0.002-0.127 0.025-0.047 0.015 0.045 0.040 0.088 0.058 0.095s0.092-0.012 0.167-0.040c0.16-0.065 0.52-0.172 0.572-0.172 0.020 0-0.093 0.043-0.25 0.095zM1.335 12.185c0.090 0.152 0.297 0.332 0.422 0.367 0.095 0.025 0.208 0.023 0.567-0.015 0.075-0.008 0.25-0.025 0.388-0.040 0.31-0.033 0.658-0.102 0.837-0.17 0.090-0.033 0.12-0.037 0.090-0.015-0.14 0.105-0.563 0.193-1.317 0.275-0.405 0.043-0.532 0.030-0.71-0.075-0.135-0.080-0.278-0.23-0.325-0.345-0.052-0.125-0.032-0.117 0.048 0.018zM9.807 12.8c0.012 0.010-0.050 0.023-0.137 0.030-0.21 0.018-0.495 0.133-0.75 0.303-0.447 0.297-1.3 1.015-2.19 1.845-0.277 0.26-0.518 0.473-0.532 0.473-0.048 0 0.010-0.055 0.64-0.635 1.55-1.425 2.25-1.955 2.69-2.037 0.113-0.020 0.245-0.010 0.28 0.023zM14.637 12.807c-0.035 0.055-0.033 0.065 0.027 0.145s0.063 0.1 0.053 0.297c-0.043 0.79-0.835 2.172-1.793 3.125-0.742 0.74-1.47 1.165-2.338 1.365-0.25 0.060-0.955 0.065-1.225 0.012-0.943-0.183-1.865-0.78-2.728-1.76-0.16-0.182-0.3-0.352-0.315-0.38s0.265 0.238 0.62 0.59c0.357 0.352 0.728 0.698 0.822 0.77 0.223 0.168 0.927 0.52 1.25 0.622 0.635 0.207 1.297 0.203 1.933-0.010 0.455-0.15 1.080-0.51 1.547-0.887 0.91-0.735 1.905-2.21 2.133-3.158 0.060-0.242 0.060-0.367 0.010-0.502-0.068-0.175-0.070-0.217-0.023-0.255 0.065-0.045 0.070-0.043 0.025 0.025zM14.762 13.943c-0.12 0.357-0.34 0.8-0.588 1.178-0.2 0.305-0.49 0.705-0.515 0.705-0.005 0 0.033-0.060 0.085-0.133 0.465-0.627 0.873-1.383 1.045-1.93 0.025-0.078 0.050-0.13 0.055-0.117 0.005 0.015-0.033 0.148-0.082 0.297zM17.282 15.18c0.040 0.16 0.177 0.93 0.265 1.47 0.188 1.145 0.258 1.83 0.258 2.488 0 0.492-0.040 0.77-0.13 0.892-0.027 0.038-0.050 0.087-0.050 0.11 0 0.14-0.938 1.125-1.45 1.52-1.537 1.19-3.332 1.875-5.45 2.075-2.46 0.235-5.355-0.265-8.352-1.438l-0.44-0.172-0.080-0.407c-0.090-0.453-0.157-0.953-0.208-1.492-0.058-0.642-0.028-3.075 0.038-3.143 0.005-0.005 0.115 0.043 0.245 0.102 1.185 0.56 2.895 1.023 4.398 1.188 0.822 0.093 2.030 0.11 2.813 0.040 1.508-0.133 2.922-0.475 4.325-1.052 0.447-0.185 1.422-0.672 1.875-0.935 0.447-0.262 1.188-0.755 1.587-1.060 0.172-0.13 0.32-0.238 0.328-0.238 0.010-0.002 0.023 0.023 0.030 0.053zM6.162 15.682c0.055 0.072 0.2 0.248 0.322 0.393l0.223 0.262-0.7-0.69-0.26 0.21c-0.143 0.117-0.355 0.275-0.473 0.353-0.202 0.137-0.93 0.515-0.985 0.515-0.015 0 0.112-0.070 0.285-0.157 0.5-0.25 0.98-0.572 1.325-0.89 0.075-0.068 0.143-0.125 0.15-0.125s0.058 0.057 0.112 0.13zM13.65 15.86c0 0.005-0.020 0.025-0.043 0.043-0.040 0.033-0.043 0.030-0.010-0.010s0.053-0.053 0.053-0.033zM4.225 16.75c-0.020 0.012-0.048 0.025-0.063 0.025-0.013 0-0.008-0.012 0.013-0.025s0.050-0.025 0.063-0.025c0.015 0 0.008 0.012-0.013 0.025zM7.875 17.308c0.455 0.295 0.94 0.497 1.453 0.608 0.265 0.055 0.273 0.058 0.11 0.045-0.607-0.052-1.485-0.473-2.065-0.992-0.112-0.1-0.1-0.093 0.077 0.040 0.117 0.090 0.308 0.223 0.425 0.3zM3.817 16.89c-0.007 0.008-0.030 0.010-0.047 0.003-0.020-0.008-0.013-0.015 0.015-0.015 0.027-0.003 0.042 0.005 0.033 0.012zM3.717 16.915c-0.007 0.008-0.030 0.010-0.047 0.003-0.020-0.008-0.013-0.015 0.015-0.015 0.027-0.003 0.042 0.005 0.033 0.012zM12.45 17.052c-0.182 0.155-0.65 0.45-0.908 0.573-0.352 0.165-0.738 0.293-0.99 0.328-0.295 0.040-0.305 0.012-0.015-0.040 0.56-0.098 1.105-0.335 1.65-0.71 0.18-0.122 0.33-0.225 0.338-0.225s-0.027 0.032-0.075 0.075zM17.657 20.617c-0.075 1.4-0.863 3-2.080 4.233-0.313 0.315-0.305 0.297 0.053-0.113 0.865-1 1.323-1.74 1.688-2.738 0.133-0.363 0.308-1.165 0.308-1.407 0-0.020-0.223 0.185-0.492 0.455-0.538 0.535-0.945 0.875-1.447 1.207-1.488 0.988-3.095 1.518-5.123 1.698-0.44 0.038-1.683 0.040-2.162 0-1.265-0.102-2.52-0.33-3.783-0.692-0.595-0.17-1.947-0.613-2.353-0.767l-0.172-0.067 0.018 0.105c0.045 0.285 0.37 1.073 0.605 1.468 0.067 0.115 0.215 0.323 0.325 0.462 0.982 1.227 2.585 1.973 4.81 2.238 0.5 0.060 1.010 0.102 1.297 0.105 0.168 0.003 0.197 0.008 0.14 0.025-0.043 0.012-0.273 0.012-0.555-0.003-2.075-0.105-3.737-0.615-4.875-1.497-0.288-0.225-0.822-0.747-0.968-0.95-0.28-0.385-0.575-1.003-0.76-1.578-0.055-0.172-0.107-0.348-0.115-0.39l-0.018-0.080 0.382 0.148c1.908 0.738 3.868 1.227 5.645 1.413 0.527 0.052 1.885 0.075 2.405 0.038 2.020-0.148 3.787-0.727 5.283-1.727 0.692-0.465 1.465-1.163 1.855-1.68 0.038-0.052 0.078-0.093 0.085-0.095 0.008 0 0.010 0.087 0.005 0.192zM17.995 20.875c0.273 0.183 0.405 0.38 0.405 0.608 0 0.17-0.095 0.325-0.305 0.492-0.142 0.115-0.49 0.315-0.51 0.295-0.005-0.008 0.050-0.043 0.12-0.082 0.205-0.108 0.488-0.328 0.57-0.442 0.065-0.087 0.075-0.125 0.075-0.255 0-0.205-0.095-0.372-0.302-0.535-0.085-0.065-0.16-0.12-0.172-0.125-0.010-0.005-0.035 0.073-0.052 0.17-0.017 0.095-0.035 0.17-0.040 0.165-0.017-0.017 0.025-0.39 0.043-0.39 0.010 0 0.087 0.045 0.17 0.1zM17.547 22.133c-0.032 0.105-0.073 0.198-0.090 0.203-0.023 0.010-0.017-0.020 0.015-0.105 0.025-0.065 0.060-0.16 0.078-0.212 0.055-0.175 0.052-0.078-0.003 0.115zM3.88 25.552c0.708 0.525 1.705 0.94 2.833 1.185 0.412 0.087 1.152 0.195 1.555 0.227 0.27 0.020 0.242-0.025 0.28 0.46 0.065 0.817 0.057 1.547-0.027 2.8l-0.027 0.438-0.095 0.090c-0.1 0.098-0.283 0.17-0.56 0.225-0.223 0.043-1.255 0.058-1.72 0.025-0.465-0.035-0.99-0.087-1.367-0.142-0.338-0.047-0.38-0.058-0.362-0.085 0.008-0.012-0.003-0.108-0.025-0.21-0.020-0.102-0.037-0.203-0.037-0.22s0.050-0.1 0.112-0.183c0.117-0.155 0.133-0.207 0.082-0.258-0.018-0.017-0.020-0.030-0.005-0.030 0.043 0 0.085 0.058 0.085 0.113 0 0.027-0.032 0.090-0.072 0.137-0.095 0.117-0.135 0.255-0.122 0.402 0.015 0.152 0.063 0.205 0.228 0.258 0.367 0.113 1.458 0.168 2.685 0.135 0.943-0.025 1.040-0.063 1.123-0.438 0.088-0.407 0.1-3.117 0.015-3.335-0.037-0.095-0.185-0.137-0.692-0.198-1.64-0.198-2.897-0.645-3.987-1.425-0.275-0.195-0.39-0.26-0.43-0.235-0.060 0.038 0.083 2.082 0.195 2.747 0.055 0.332 0.197 0.832 0.337 1.19l0.125 0.313-0.138 0.233c-0.203 0.345-0.228 0.512-0.095 0.663 0.085 0.095 0.285 0.24 0.335 0.24 0.045 0 0.048-0.012 0.032-0.198-0.022-0.23 0.008-0.315 0.162-0.465 0.133-0.128 0.125-0.102-0.015 0.078l-0.115 0.148 0.015 0.188c0.008 0.102 0.020 0.212 0.030 0.245 0.013 0.043 0.005 0.055-0.027 0.055-0.1 0-0.248-0.065-0.348-0.155-0.105-0.093-0.265-0.31-0.265-0.363 0-0.015 0.085-0.175 0.188-0.358s0.188-0.343 0.188-0.355c0-0.010-0.040-0.102-0.090-0.2-0.335-0.668-0.52-1.823-0.552-3.455l-0.015-0.773 0.19 0.165c0.107 0.093 0.285 0.235 0.397 0.32zM15.695 25.58c0.18 1.098 0.238 1.805 0.24 2.933 0.002 0.977-0.015 1.16-0.152 1.6-0.223 0.718-0.748 1.282-1.345 1.45-0.082 0.025-0.18 0.060-0.22 0.080-0.143 0.073-0.797 0.135-1.772 0.172l-0.443 0.015 0.057-0.145c0.088-0.215 0.12-0.398 0.11-0.61-0.008-0.185-0.008-0.188-0.082-0.203-0.063-0.012-0.068-0.017-0.030-0.035 0.033-0.012 0.063-0.003 0.1 0.035 0.047 0.047 0.055 0.080 0.053 0.26 0 0.122-0.023 0.288-0.055 0.41-0.030 0.113-0.055 0.212-0.055 0.22 0 0.038 1.018-0.012 1.5-0.075 1.193-0.152 1.762-0.565 2.095-1.512 0.162-0.468 0.168-0.51 0.168-1.65-0.002-0.593-0.015-1.198-0.033-1.413-0.072-0.883-0.135-1.395-0.207-1.732-0.030-0.148-0.060-0.16-0.19-0.080-0.045 0.027-0.082 0.043-0.082 0.035 0-0.017 0.232-0.233 0.252-0.235 0.008 0 0.050 0.218 0.092 0.48zM15.2 25.387c0.027 0.032 0.025 0.035-0.010 0.023-0.023-0.008-0.040-0.025-0.040-0.038 0-0.032 0.015-0.027 0.050 0.015zM9.887 26.1c0.008 0.012 0.002 0.113-0.012 0.22-0.075 0.558 0.223 2.575 0.463 3.115 0.035 0.080 0.060 0.15 0.055 0.155-0.030 0.030-0.123-0.115-0.168-0.26-0.213-0.688-0.447-2.435-0.398-2.98 0.012-0.137 0.010-0.223-0.008-0.242-0.020-0.025-0.015-0.032 0.012-0.032 0.023 0 0.047 0.010 0.055 0.025zM9.655 26.505c-0.005 0.198-0.020 0.32-0.035 0.32-0.018 0-0.020-0.095-0.010-0.29 0.018-0.253 0.035-0.38 0.050-0.355 0.002 0.005 0 0.15-0.005 0.325zM10.418 30.032c-0.008 0.225-0.027 0.435-0.040 0.468-0.018 0.045-0.023-0.070-0.012-0.375 0.015-0.445 0.020-0.5 0.050-0.5 0.010 0 0.010 0.183 0.002 0.407zM10.283 30.915c-0.065 0.192 0.015 0.337 0.21 0.375 0.1 0.020 0.117-0.017 0.152-0.29l0.023-0.188 0.005 0.227c0.002 0.255-0.002 0.265-0.17 0.31-0.107 0.027-0.11 0.027-0.188-0.065-0.172-0.205-0.188-0.3-0.063-0.433 0.070-0.075 0.075-0.067 0.030 0.063zM10.865 31.17c-0.033 0.032-0.040-0.023-0.023-0.148l0.020-0.135 0.008 0.135c0.005 0.073 0.002 0.14-0.005 0.148zM12.025 31.128c0 0.113-0.080 0.422-0.15 0.578l-0.053 0.12h-0.45c-0.502 0-0.463 0.010-0.715-0.198-0.11-0.090-0.133-0.128-0.075-0.128 0.018 0 0.075-0.023 0.13-0.052l0.1-0.052-0.072 0.075c-0.040 0.043-0.065 0.093-0.057 0.113s0.078 0.067 0.158 0.108c0.13 0.063 0.172 0.070 0.482 0.080 0.205 0.005 0.367 0 0.408-0.017 0.12-0.045 0.245-0.383 0.245-0.655 0-0.098 0.008-0.125 0.025-0.098 0.012 0.020 0.025 0.078 0.025 0.128z"></path>
<path d="M7.575 4.030c-0.080 0.13-0.040 0.237 0.125 0.32 0.085 0.043 0.16 0.065 0.382 0.112l0.070 0.015-0.063 0.080c-0.098 0.128-0.145 0.325-0.157 0.667-0.015 0.335 0.018 0.527 0.12 0.742 0.143 0.295 0.463 0.51 0.835 0.56 0.348 0.048 0.783-0.063 1.053-0.268 0.125-0.095 0.357-0.418 0.428-0.59 0.205-0.505 0.085-1.030-0.268-1.168-0.090-0.032-0.035-0.045 0.283-0.065 0.297-0.020 0.365-0.050 0.315-0.143-0.023-0.043-0.043-0.048-0.155-0.035-0.357 0.040-1.020 0.070-1.567 0.072-0.727 0-1.093-0.043-1.235-0.147-0.043-0.030-0.045-0.043-0.015-0.095 0.075-0.143-0.065-0.197-0.15-0.060z"></path>
<path d="M4.152 5.503c-0.122 0.022-0.252 0.13-0.252 0.202 0 0.215 0.39 0.402 0.837 0.405 0.335 0.003 0.532-0.082 0.588-0.247 0.067-0.205-0.080-0.293-0.575-0.338-0.173-0.015-0.353-0.032-0.4-0.037s-0.138 0.003-0.197 0.015z"></path>
<path d="M4.95 7.723c-0.235 0.075-0.375 0.17-0.375 0.255 0 0.060 0.093 0.085 0.145 0.040 0.085-0.072 0.255-0.143 0.423-0.17 0.213-0.032 0.465 0.013 0.705 0.13 0.143 0.070 0.162 0.075 0.195 0.040 0.060-0.060 0.022-0.107-0.14-0.192-0.305-0.152-0.673-0.192-0.952-0.103z"></path>
<path d="M13.375 1.115c-0.203 0.070-0.575 0.262-0.627 0.325-0.043 0.050-0.030 0.060 0.415 0.35 0.18 0.117 0.405 0.28 0.505 0.362l0.18 0.147 0.027-0.098c0.053-0.2 0.075-0.367 0.075-0.583 0-0.288-0.035-0.427-0.13-0.507s-0.203-0.080-0.445 0.002z"></path>
<path d="M7.535 0.25c-0.085 0.035-0.228 0.218-0.332 0.435-0.1 0.208-0.168 0.41-0.143 0.435 0.008 0.008 0.147-0.040 0.308-0.103 0.27-0.105 0.583-0.203 0.853-0.27l0.107-0.025-0.068-0.093c-0.24-0.325-0.51-0.468-0.725-0.38z"></path>
</symbol>
<symbol id="icon-lew" viewBox="0 0 43 32">
<path d="M6.719 0.068c-0.071 0.037-0.214 0.183-0.333 0.34-0.323 0.414-0.425 0.455-0.975 0.391-0.211-0.024-0.258-0.017-0.391 0.048-0.207 0.099-0.428 0.326-0.527 0.54-0.088 0.187-0.207 0.279-0.363 0.279-0.061 0-0.082-0.014-0.068-0.051 0.037-0.095-0.183 0.017-0.374 0.19-0.248 0.224-0.394 0.506-0.37 0.71 0.010 0.085 0 0.217-0.020 0.289-0.037 0.132-0.034 0.139 0.078 0.245 0.075 0.068 0.19 0.129 0.316 0.163 0.431 0.115 0.55 0.156 0.625 0.217l0.078 0.061-0.187 0.139c-0.102 0.078-0.289 0.221-0.421 0.319-0.214 0.163-0.255 0.214-0.384 0.479-0.16 0.323-0.414 0.625-0.717 0.849-0.099 0.075-0.401 0.262-0.673 0.418-0.319 0.187-0.567 0.357-0.713 0.496-0.122 0.119-0.296 0.282-0.384 0.367-0.296 0.282-0.296 0.499 0.003 1.022 0.255 0.448 0.316 0.666 0.224 0.788-0.041 0.058-0.058 0.054-0.313-0.020-0.149-0.044-0.299-0.092-0.33-0.109-0.051-0.020-0.061-0.007-0.061 0.061 0 0.082 0.014 0.088 0.194 0.109 0.357 0.044 0.554 0.17 0.554 0.353 0 0.065-0.020 0.071-0.258 0.071-0.187 0-0.248-0.010-0.231-0.041 0.017-0.027 0.007-0.031-0.041-0.014-0.034 0.014-0.17 0.041-0.302 0.058-0.16 0.020-0.258 0.051-0.302 0.098-0.068 0.068-0.068 0.068 0.003 0.068 0.041 0 0.194-0.024 0.34-0.051 0.326-0.061 0.724-0.068 0.798-0.010 0.031 0.024 0.071 0.105 0.095 0.18s0.088 0.224 0.143 0.329l0.102 0.194-0.092 0.082c-0.092 0.075-0.095 0.092-0.095 0.401 0 0.486 0.112 0.805 0.462 1.315 0.163 0.234 0.18 0.251 0.282 0.238 0.092-0.010 0.115 0 0.122 0.058 0.007 0.041 0.041 0.071 0.092 0.078 0.071 0.010 0.078 0 0.065-0.075-0.017-0.082 0.020-0.126 0.048-0.061 0.007 0.017 0.051 0.041 0.102 0.054 0.075 0.017 0.102 0.007 0.132-0.054 0.058-0.112 0.061-0.112 0.112-0.044 0.044 0.061 0.051 0.054 0.126-0.098 0.088-0.187 0.231-0.292 0.404-0.292h0.119l-0.092 0.085c-0.112 0.105-0.17 0.299-0.132 0.459 0.037 0.163 0.132 0.34 0.194 0.363 0.044 0.017 0.048 0.051 0.031 0.17-0.031 0.2 0.037 0.499 0.143 0.622 0.102 0.122 0.197 0.139 0.16 0.027-0.051-0.16 0-0.771 0.054-0.669 0.014 0.027 0.044 0.153 0.065 0.285 0.058 0.333 0.224 0.812 0.363 1.040 0.065 0.105 0.207 0.279 0.319 0.384l0.204 0.187-0.109 0.058c-0.061 0.031-0.18 0.105-0.265 0.16l-0.149 0.105 0.112 0.044c0.095 0.041 0.143 0.037 0.33-0.010 0.122-0.031 0.228-0.048 0.234-0.044 0.007 0.007-0.071 0.18-0.173 0.387-0.217 0.445-0.285 0.693-0.289 1.036-0.003 0.333 0.048 0.537 0.204 0.853 0.112 0.221 0.666 1.084 0.7 1.084 0.024 0-0.088-0.482-0.166-0.71-0.048-0.139-0.088-0.268-0.088-0.289 0.003-0.071 0.132 0.211 0.272 0.594 0.078 0.214 0.177 0.448 0.221 0.523 0.088 0.153 0.245 0.313 0.275 0.279 0.014-0.010-0.078-0.234-0.204-0.496-0.122-0.262-0.224-0.482-0.224-0.496 0-0.010 0.037-0.017 0.088-0.017h0.085l-0.088-0.119c-0.051-0.065-0.129-0.228-0.18-0.363-0.119-0.333-0.126-0.812-0.017-1.056 0.041-0.088 0.082-0.16 0.088-0.16s0.010 0.241 0.010 0.533c-0.003 0.465 0.007 0.567 0.075 0.781 0.041 0.132 0.115 0.289 0.163 0.346 0.061 0.075 0.122 0.248 0.217 0.605 0.204 0.785 0.323 1.097 0.601 1.603 0.003 0.007 0.031 0.003 0.058-0.007 0.044-0.017 0.044-0.044-0.014-0.214-0.146-0.421-0.143-1.233 0.007-1.79 0.037-0.143 0.078-0.268 0.092-0.279 0.031-0.017 0.115 0.414 0.092 0.452-0.007 0.014-0.034 0.18-0.054 0.37-0.037 0.353-0.007 0.73 0.068 0.805 0.054 0.054 0.102-0.037 0.102-0.194 0-0.149 0.048-0.143 0.078 0.007 0.014 0.058 0.136 0.36 0.275 0.673s0.299 0.696 0.357 0.853c0.109 0.292 0.204 0.496 0.224 0.476 0.007-0.007-0.048-0.279-0.119-0.605-0.075-0.326-0.126-0.598-0.119-0.605 0.014-0.014 0.183 0.52 0.255 0.798 0.020 0.082 0.051 0.146 0.065 0.146 0.031 0 0.071-0.163 0.071-0.289 0-0.041 0.024-0.095 0.051-0.119 0.044-0.037 0.051-0.024 0.051 0.075 0 0.166 0.088 0.448 0.173 0.544l0.071 0.078-0.020-0.085c-0.044-0.187-0.061-0.374-0.041-0.455 0.041-0.17 0.082-0.085 0.078 0.173-0.003 0.156 0.020 0.343 0.054 0.455 0.058 0.19 0.258 0.499 0.37 0.571 0.068 0.041 0.058 0.014-0.163-0.506-0.098-0.234-0.153-0.611-0.085-0.611 0.020 0 0.068 0.105 0.109 0.238 0.058 0.197 0.085 0.238 0.143 0.238 0.054 0.003 0.095 0.048 0.153 0.17 0.078 0.17 0.36 0.51 0.421 0.51 0.017 0 0.024-0.041 0.010-0.102-0.031-0.136 0.027-0.129 0.136 0.014 0.255 0.333 0.313 0.846 0.166 1.43-0.024 0.095-0.020 0.099 0.034 0.054 0.082-0.068 0.126-0.16 0.194-0.394 0.054-0.183 0.061-0.19 0.061-0.085 0.003 0.071-0.044 0.221-0.116 0.37-0.119 0.248-0.149 0.377-0.085 0.377 0.020 0 0.065-0.044 0.095-0.102 0.054-0.099 0.109-0.132 0.109-0.071 0 0.017-0.031 0.095-0.068 0.177s-0.068 0.18-0.068 0.214c0 0.136 0.129-0.051 0.272-0.387 0.078-0.187 0.163-0.353 0.19-0.377 0.085-0.071 0.054 0.116-0.058 0.357-0.071 0.153-0.098 0.251-0.085 0.309 0.034 0.132 0.078 0.099 0.102-0.078 0.010-0.092 0.041-0.194 0.068-0.228 0.044-0.061 0.048-0.058 0.068 0.037 0.044 0.228 0.088 0.574 0.139 1.128 0.027 0.323 0.092 0.849 0.143 1.172 0.088 0.581 0.088 0.591 0.044 1.318-0.044 0.778-0.044 0.802 0.092 1.627 0.102 0.628 0.095 0.887-0.034 1.165-0.092 0.2-0.126 0.228-0.19 0.146-0.061-0.071-0.499-0.166-0.578-0.126-0.116 0.065-0.146 0.129-0.105 0.211 0.044 0.082 0.007 0.071-0.109-0.031-0.085-0.071-0.397-0.034-0.625 0.078s-0.367 0.272-0.56 0.645c-0.105 0.204-0.173 0.296-0.228 0.309-0.041 0.014-0.112 0.068-0.16 0.122-0.194 0.231-0.048 0.747 0.255 0.904 0.092 0.044 0.183 0.068 0.231 0.058 0.051-0.014 0.075-0.003 0.075 0.031 0 0.027 0.085 0.136 0.19 0.238l0.187 0.187 0.224-0.051c0.126-0.027 0.34-0.048 0.482-0.044 0.241 0.007 0.258 0 0.251-0.065-0.010-0.095 0.19-0.119 0.296-0.034 0.116 0.095 0.296 0.116 0.374 0.044 0.037-0.034 0.068-0.088 0.068-0.126 0-0.034 0.020-0.061 0.048-0.061 0.031 0 0.041 0.027 0.027 0.085-0.017 0.102-0.027 0.102 0.401 0.017 0.19-0.037 0.428-0.068 0.53-0.068s0.183-0.010 0.183-0.027c0-0.014 0.071-0.068 0.163-0.122 0.289-0.18 0.313-0.214 0.313-0.435 0-0.234 0.214-0.938 0.391-1.284 0.282-0.547 0.479-1.709 0.35-2.059-0.034-0.102-0.024-0.163 0.119-0.598 0.207-0.639 0.367-1.457 0.53-2.735l0.061-0.479 0.197-0.336c0.109-0.183 0.262-0.445 0.343-0.584l0.146-0.251 0.010 0.129c0.017 0.217 0.085 0.18 0.112-0.065 0.010-0.122 0.037-0.231 0.054-0.245 0.017-0.010 0.054 0.034 0.082 0.102 0.065 0.149 0.037 0.217-0.166 0.459-0.207 0.234-0.234 0.299-0.323 0.669-0.122 0.533-0.082 0.849 0.156 1.186 0.109 0.149 0.197 0.207 0.156 0.095-0.014-0.034-0.007-0.048 0.017-0.031 0.020 0.010 0.048 0.092 0.061 0.173 0.020 0.143 0.034 0.16 0.214 0.262 0.615 0.346 1.223 0.744 1.766 1.155 0.166 0.126 0.228 0.153 0.245 0.119 0.024-0.037 0.078-0.037 0.326-0.003 0.747 0.105 1.79 0.017 1.834-0.16 0.010-0.034 0.037-0.065 0.058-0.065 0.071 0 0.645-0.584 0.744-0.758 0.122-0.207 0.204-0.469 0.16-0.513-0.020-0.020-0.034-0.078-0.034-0.129 0-0.132-0.099-0.363-0.173-0.404-0.044-0.020-0.085-0.020-0.132 0.003-0.048 0.027-0.088 0.027-0.139 0-0.065-0.037-0.068-0.044-0.014-0.102 0.051-0.058 0.048-0.068-0.058-0.149-0.272-0.204-0.88-0.245-1.359-0.088l-0.224 0.075-0.2-0.092c-0.116-0.054-0.282-0.099-0.404-0.109-0.248-0.020-0.285-0.071-0.285-0.363 0-0.262 0.153-0.489 0.744-1.090 0.465-0.476 0.703-0.798 0.615-0.825-0.020-0.007-0.027-0.027-0.014-0.044 0.010-0.017 0.119-0.031 0.245-0.031 0.143 0 0.391-0.041 0.652-0.105 0.238-0.058 0.561-0.112 0.737-0.122 0.285-0.017 0.313-0.024 0.323-0.092 0.007-0.051 0.031-0.068 0.078-0.058 0.197 0.037 0.696 0.010 0.9-0.048 0.251-0.071 0.329-0.119 0.19-0.119-0.051 0-0.085-0.014-0.075-0.031 0.014-0.017 0.075-0.017 0.146 0 0.102 0.024 0.146 0.017 0.214-0.034 0.129-0.092 0.428-0.194 0.696-0.238 0.319-0.048 1.043-0.112 1.063-0.092 0.007 0.010-0.003 0.065-0.027 0.122s-0.031 0.116-0.017 0.129c0.014 0.014 0.034 0.003 0.041-0.020 0.034-0.092 0.19-0.245 0.251-0.245s0.065 0.007 0.014 0.102c-0.027 0.054-0.051 0.16-0.051 0.238 0 0.462 0.374 1.559 0.554 1.627 0.058 0.024 0.105 0.119 0.207 0.431 0.346 1.060 0.849 1.658 1.583 1.885 0.214 0.065 0.224 0.075 0.34 0.275 0.207 0.36 0.69 0.768 1.535 1.294 0.054 0.034 0.095 0.092 0.102 0.149 0.007 0.065 0.058 0.126 0.163 0.2 0.319 0.231 0.306 0.204 0.306 0.632-0.003 0.625-0.065 0.948-0.245 1.25-0.139 0.231-0.36 0.377-0.608 0.401-0.163 0.014-0.18 0.010-0.302-0.112-0.126-0.126-0.139-0.129-0.313-0.109-0.099 0.010-0.262 0.037-0.36 0.058-0.156 0.034-0.18 0.051-0.166 0.105 0.017 0.061 0.007 0.065-0.105 0.041-0.319-0.061-0.584 0.020-0.778 0.241-0.129 0.143-0.19 0.326-0.17 0.489 0.010 0.109 0 0.139-0.092 0.214-0.092 0.082-0.105 0.112-0.105 0.272 0 0.129-0.014 0.183-0.051 0.194-0.078 0.024-0.17 0.112-0.17 0.166 0 0.027 0.041 0.044 0.102 0.044 0.075 0 0.112 0.020 0.132 0.075 0.041 0.102 0.129 0.18 0.289 0.245 0.136 0.058 0.19 0.048 0.19-0.034 0-0.105 0.065-0.037 0.075 0.078l0.010 0.129h0.187c0.132 0 0.183 0.014 0.18 0.041-0.007 0.024-0.014 0.061-0.017 0.085-0.020 0.092 0.639 0.126 0.866 0.048 0.071-0.027 0.156-0.071 0.187-0.102 0.041-0.034 0.075-0.041 0.109-0.020 0.071 0.048 0.102 0.041 0.102-0.017 0-0.037 0.034-0.044 0.163-0.031 0.088 0.010 0.401-0.003 0.693-0.031 0.486-0.048 0.544-0.058 0.652-0.143 0.068-0.051 0.122-0.109 0.122-0.126s0.027-0.024 0.065-0.010c0.051 0.014 0.068-0.003 0.085-0.092l0.024-0.112 0.048 0.105c0.075 0.177 0.146 0.194 0.296 0.075 0.112-0.088 0.129-0.119 0.129-0.241 0-0.2-0.034-0.296-0.099-0.299-0.041 0-0.037-0.014 0.024-0.054 0.041-0.027 0.075-0.075 0.075-0.102 0-0.068 0.19-0.435 0.34-0.656 0.071-0.102 0.289-0.391 0.489-0.642 0.38-0.472 0.472-0.605 0.645-0.927 0.058-0.105 0.234-0.394 0.387-0.639l0.285-0.445-0.014-0.306c-0.010-0.302-0.010-0.306-0.129-0.394-0.55-0.421-1.186-1.213-1.763-2.194-0.296-0.496-0.414-0.768-0.37-0.839 0.031-0.048 0.031-0.095 0-0.197-0.058-0.187-0.051-0.234 0.031-0.255 0.058-0.017 0.065-0.037 0.048-0.139-0.024-0.116-0.014-0.126 0.465-0.605 0.401-0.397 0.584-0.605 0.829-0.938 0.003-0.007 0.112 0.071 0.241 0.173 0.469 0.377 0.955 0.642 1.505 0.822 0.234 0.078 0.316 0.122 0.428 0.245 0.085 0.088 0.18 0.153 0.248 0.166 0.082 0.017 0.183 0.105 0.404 0.346 0.866 0.951 0.985 1.046 1.787 1.4 0.282 0.126 0.625 0.285 0.761 0.353 0.2 0.102 0.272 0.122 0.357 0.102 0.099-0.020 0.102-0.017 0.061 0.034-0.078 0.095 0.194 0.394 0.781 0.853 0.591 0.465 0.642 0.537 0.71 0.982 0.061 0.401 0.119 0.52 0.285 0.605 0.275 0.136 0.353 0.221 0.51 0.55 0.088 0.187 0.19 0.35 0.251 0.397 0.18 0.146 0.374 0.618 0.33 0.812l-0.020 0.099-0.109-0.068c-0.146-0.085-0.282-0.085-0.33 0.007-0.031 0.054-0.027 0.082 0.014 0.129 0.092 0.099 0.068 0.163-0.048 0.146-0.156-0.024-0.289 0.051-0.493 0.272-0.197 0.214-0.224 0.299-0.132 0.431 0.054 0.075 0.051 0.082-0.054 0.19-0.139 0.143-0.183 0.323-0.112 0.462 0.044 0.092 0.048 0.126 0.007 0.241-0.061 0.183-0.027 0.224 0.296 0.367 0.238 0.105 0.309 0.119 0.615 0.129 0.326 0.014 0.363 0.007 0.713-0.116 0.234-0.082 0.431-0.129 0.544-0.129 0.139 0 0.18-0.014 0.19-0.061 0.024-0.092 0.092-0.075 0.092 0.024 0 0.126 0.041 0.105 0.207-0.102 0.082-0.102 0.16-0.187 0.173-0.187s0.027 0.051 0.034 0.109c0.007 0.095 0.017 0.102 0.051 0.061 0.221-0.268 0.211-0.258 0.214-0.18 0 0.132 0.065 0.119 0.309-0.078 0.272-0.214 0.353-0.36 0.323-0.554-0.014-0.068-0.126-0.326-0.248-0.574-0.2-0.394-0.228-0.472-0.228-0.645-0.003-0.116-0.027-0.238-0.061-0.299-0.031-0.058-0.075-0.241-0.095-0.408s-0.044-0.329-0.054-0.363c-0.010-0.037-0.024-0.326-0.027-0.645-0.007-0.503-0.020-0.618-0.085-0.822-0.18-0.55-0.448-0.904-0.842-1.114-0.336-0.18-0.985-0.822-1.118-1.104-0.058-0.119-0.136-0.228-0.187-0.258s-0.156-0.156-0.234-0.282c-0.078-0.129-0.204-0.319-0.272-0.425-0.095-0.139-0.163-0.316-0.251-0.632-0.248-0.89-0.418-1.355-0.968-2.653-0.523-1.23-0.537-1.27-0.564-1.549-0.041-0.493-0.187-0.9-0.642-1.804-0.139-0.279-0.285-0.588-0.326-0.69l-0.071-0.183 0.078 0.024c0.044 0.010 0.248 0.034 0.452 0.054 0.873 0.085 1.349 0.139 1.427 0.17 0.136 0.051 1.715 0 1.804-0.058 0.041-0.027 0.279-0.099 0.527-0.16 0.717-0.18 1.301-0.418 2.001-0.822 0.309-0.177 0.34-0.211 0.611-0.625 0.115-0.177 0.258-0.374 0.316-0.435 0.109-0.112 0.129-0.183 0.333-1.128 0.231-1.053-0.217-2.252-1.206-3.244-0.445-0.442-0.88-0.758-1.396-1.016-0.452-0.228-0.788-0.34-1.291-0.428-0.459-0.085-0.639-0.143-0.846-0.272-0.092-0.058-0.207-0.102-0.268-0.102s-0.18-0.024-0.268-0.051c-0.136-0.041-0.163-0.041-0.163 0 0 0.034-0.024 0.037-0.109 0.014-0.061-0.017-0.2-0.048-0.306-0.068-0.109-0.020-0.197-0.048-0.197-0.065s-0.065-0.027-0.143-0.027c-0.082 0.003-0.289-0.007-0.459-0.020-0.231-0.024-0.316-0.020-0.316 0.010 0 0.020 0.034 0.037 0.075 0.037 0.119 0 0.054 0.031-0.231 0.105-0.146 0.037-0.377 0.122-0.513 0.183-0.241 0.112-0.825 0.472-0.825 0.51 0 0.010 0.037 0.010 0.085-0.003 0.048-0.010 0.085-0.014 0.085-0.003s-0.194 0.18-0.431 0.374c-0.241 0.197-0.503 0.421-0.588 0.499-0.143 0.132-0.146 0.139-0.058 0.119 0.088-0.017 0.092-0.014 0.051 0.051-0.024 0.037-0.092 0.085-0.153 0.105-0.102 0.034-0.214 0.143-0.214 0.211 0 0.014 0.031 0.010 0.065-0.010 0.095-0.048 0.139-0.041 0.119 0.017-0.014 0.027-0.048 0.051-0.085 0.051-0.071 0-0.262 0.153-0.228 0.187 0.024 0.024 0.282-0.098 0.316-0.153 0.041-0.068 0.088-0.034 0.078 0.058-0.010 0.075-0.041 0.098-0.197 0.153-0.17 0.058-0.37 0.197-0.285 0.197 0.020 0 0.143-0.048 0.268-0.105 0.258-0.116 0.479-0.153 0.713-0.116 0.119 0.017 0.166 0.041 0.177 0.088 0.010 0.034 0.031 0.065 0.048 0.065s0.031 0.020 0.031 0.048c0 0.071 0.245 0.122 0.662 0.146 0.601 0.031 0.985-0.092 1.838-0.588 0.734-0.425 1.121-0.574 1.593-0.611 0.132-0.010 0.296-0.041 0.367-0.068 0.69-0.258 2.031 0.547 2.813 1.692 0.669 0.978 0.717 1.936 0.139 2.718-0.265 0.357-0.615 0.611-1.124 0.812-0.363 0.146-0.625 0.2-0.972 0.2-0.166 0-0.442 0.024-0.611 0.051-0.978 0.16-1.705-0.061-3.129-0.958-1.868-1.175-4.087-2.392-5.32-2.915-0.136-0.058-0.234-0.122-0.241-0.16-0.014-0.048-0.051-0.061-0.187-0.061-0.241 0-0.649-0.078-1.349-0.255-0.754-0.194-1.518-0.309-2.392-0.36-0.791-0.048-1.447-0.017-3.017 0.139-1.709 0.166-2.065 0.194-2.813 0.2-0.513 0.003-0.798-0.010-1.009-0.048-0.469-0.082-0.785-0.228-0.751-0.35 0.034-0.129-0.309-0.357-0.608-0.401-0.262-0.041-0.265-0.088-0.003-0.068 0.194 0.014 0.241 0.007 0.228-0.031-0.020-0.051-0.122-0.085-0.255-0.085-0.126 0-0.136-0.027-0.061-0.146 0.078-0.132 0.085-0.272 0.010-0.333-0.044-0.037-0.048-0.031-0.031 0.048 0.027 0.098-0.007 0.228-0.054 0.228-0.020 0-0.024-0.031-0.014-0.068 0.037-0.122-0.020-0.272-0.194-0.503-0.095-0.126-0.187-0.268-0.204-0.323-0.020-0.058-0.085-0.119-0.166-0.163-0.071-0.034-0.132-0.085-0.132-0.109 0-0.051-0.153-0.2-0.262-0.258-0.17-0.088-0.574-0.024-0.686 0.109-0.041 0.054-0.037 0.054 0.085 0.003 0.173-0.075 0.489-0.051 0.618 0.044 0.143 0.105 0.132 0.163-0.027 0.173-0.078 0.003-0.136-0.007-0.136-0.027s-0.054-0.061-0.122-0.088c-0.112-0.048-0.146-0.044-0.394 0.017-0.282 0.071-0.333 0.068-0.333-0.017 0-0.071 0.601-0.35 0.805-0.374 0.139-0.017 0.183-0.007 0.292 0.068 0.129 0.088 0.129 0.088 0.109 0.014-0.014-0.044-0.058-0.115-0.099-0.156-0.122-0.136-0.329-0.095-0.948 0.194-0.537 0.248-0.676 0.279-0.696 0.16-0.010-0.048 0-0.058 0.041-0.044 0.031 0.014 0.054 0.007 0.054-0.010 0-0.020-0.020-0.034-0.048-0.034s-0.058-0.014-0.068-0.031c-0.014-0.017 0.065-0.024 0.183-0.014 0.173 0.017 0.204 0.010 0.204-0.037 0-0.034 0.027-0.054 0.078-0.054 0.044 0 0.109-0.020 0.146-0.048 0.058-0.044 0.027-0.048-0.262-0.031-0.418 0.024-0.615-0.007-0.744-0.112-0.163-0.139-0.129-0.187 0.065-0.092 0.302 0.149 0.693 0.163 0.948 0.031 0.166-0.085 0.129-0.122-0.068-0.068-0.234 0.061-0.544 0.061-0.69 0-0.065-0.027-0.119-0.054-0.119-0.061s0.092-0.003 0.207 0c0.153 0.010 0.282-0.010 0.496-0.078 0.16-0.048 0.282-0.095 0.275-0.105-0.010-0.007-0.126 0.007-0.262 0.037-0.316 0.065-0.625 0.065-0.751 0-0.163-0.085-0.289-0.404-0.143-0.37 0.075 0.020 0.414-0.54 0.438-0.727 0.041-0.302-0.126-0.547-0.496-0.734-0.221-0.112-0.234-0.143-0.088-0.19 0.068-0.024 0.194-0.109 0.282-0.19 0.085-0.082 0.177-0.149 0.204-0.149 0.068 0 0.183 0.068 0.251 0.149l0.058 0.071-0.020-0.075c-0.010-0.041-0.054-0.115-0.099-0.163-0.112-0.122-0.268-0.112-0.557 0.034-0.329 0.166-0.605 0.149-0.798-0.044-0.116-0.112-0.126-0.146-0.272-0.713-0.065-0.251-0.149-0.51-0.187-0.574s-0.054-0.109-0.037-0.095c0.078 0.048 0.068-0.065-0.020-0.228-0.129-0.245-0.459-0.564-0.717-0.7-0.211-0.112-0.268-0.166-0.143-0.132 0.109 0.027 0.082-0.071-0.037-0.143-0.054-0.034-0.194-0.082-0.306-0.105-0.204-0.044-0.245-0.078-0.143-0.115 0.041-0.017 0.044-0.034 0.017-0.061-0.024-0.024-0.109-0.024-0.306 0.003-0.377 0.054-0.486 0-0.652-0.336-0.044-0.085-0.126-0.2-0.183-0.255-0.061-0.058-0.156-0.17-0.214-0.258-0.353-0.516-1.366-0.717-2.008-0.401-0.153 0.075-0.228 0.095-0.255 0.068-0.024-0.024 0.027-0.061 0.183-0.132 0.119-0.051 0.255-0.112 0.302-0.136 0.082-0.041 0.082-0.041-0.024-0.027-0.139 0.024-0.17-0.024-0.061-0.095 0.048-0.031 0.085-0.082 0.085-0.109 0-0.041-0.027-0.031-0.109 0.041-0.126 0.102-0.493 0.285-0.571 0.282-0.027 0 0.010-0.031 0.088-0.061 0.129-0.058 0.319-0.245 0.319-0.309 0-0.017-0.109 0.017-0.241 0.071-0.316 0.136-0.479 0.136-0.686 0.003-0.306-0.194-0.853-0.231-1.189-0.082-0.088 0.041-0.251 0.16-0.363 0.265s-0.204 0.18-0.204 0.16c0-0.017 0.092-0.139 0.204-0.272 0.156-0.187 0.19-0.245 0.149-0.262-0.098-0.037-0.268-0.017-0.394 0.048zM4.786 16.329c0.034 0.221 0.058 0.408 0.051 0.414-0.017 0.020-0.115-0.238-0.173-0.455-0.061-0.217-0.075-0.791-0.024-0.87 0.020-0.031 0.041 0.051 0.054 0.231 0.014 0.153 0.054 0.459 0.092 0.679zM6.77 18.004c0.024 0.228-0.024 0.092-0.054-0.153-0.014-0.102-0.010-0.143 0.007-0.102 0.014 0.037 0.037 0.153 0.048 0.255z"></path>
<path d="M0.781 9.192c-0.177 0.048-0.404 0.194-0.435 0.279-0.010 0.031 0.754-0.272 0.805-0.319 0.034-0.031-0.2-0.003-0.37 0.041z"></path>
</symbol>
</defs>
</svg>



